<?xml version="1.0" encoding="utf-8" standalone="no"?>
<!DOCTYPE svg PUBLIC "-//W3C//DTD SVG 1.1//EN"
  "http://www.w3.org/Graphics/SVG/1.1/DTD/svg11.dtd">
<svg xmlns:xlink="http://www.w3.org/1999/xlink" width="502.2pt" height="278.739234pt" viewBox="0 0 502.2 278.739234" xmlns="http://www.w3.org/2000/svg" version="1.1">
 <metadata>
  <rdf:RDF xmlns:dc="http://purl.org/dc/elements/1.1/" xmlns:cc="http://creativecommons.org/ns#" xmlns:rdf="http://www.w3.org/1999/02/22-rdf-syntax-ns#">
   <cc:Work>
    <dc:type rdf:resource="http://purl.org/dc/dcmitype/StillImage"/>
    <dc:date>2025-08-15T14:44:37.722806</dc:date>
    <dc:format>image/svg+xml</dc:format>
    <dc:creator>
     <cc:Agent>
      <dc:title>Matplotlib v3.10.3, https://matplotlib.org/</dc:title>
     </cc:Agent>
    </dc:creator>
   </cc:Work>
  </rdf:RDF>
 </metadata>
 <defs>
  <style type="text/css">*{stroke-linejoin: round; stroke-linecap: butt}</style>
 </defs>
 <g id="figure_1">
  <g id="patch_1">
   <path d="M 0 278.739234 
L 502.2 278.739234 
L 502.2 -0 
L 0 -0 
L 0 278.739234 
z
" style="fill: none"/>
  </g>
  <g id="axes_1">
   <g id="PathCollection_1">
    <defs>
     <path id="mce72b7509c" d="M 0 3 
C 0.795609 3 1.55874 2.683901 2.12132 2.12132 
C 2.683901 1.55874 3 0.795609 3 0 
C 3 -0.795609 2.683901 -1.55874 2.12132 -2.12132 
C 1.55874 -2.683901 0.795609 -3 0 -3 
C -0.795609 -3 -1.55874 -2.683901 -2.12132 -2.12132 
C -2.683901 -1.55874 -3 -0.795609 -3 0 
C -3 0.795609 -2.683901 1.55874 -2.12132 2.12132 
C -1.55874 2.683901 -0.795609 3 0 3 
z
" style="stroke: #0000ad"/>
    </defs>
    <g clip-path="url(#peda5a3f50b)">
     <use xlink:href="#mce72b7509c" x="467.257359" y="88.112355" style="fill: #0000ad; stroke: #0000ad"/>
     <use xlink:href="#mce72b7509c" x="447.939509" y="57.633706" style="fill: #0000ad; stroke: #0000ad"/>
     <use xlink:href="#mce72b7509c" x="446.996926" y="65.576414" style="fill: #0000ad; stroke: #0000ad"/>
     <use xlink:href="#mce72b7509c" x="439.671444" y="68.749682" style="fill: #0000ad; stroke: #0000ad"/>
     <use xlink:href="#mce72b7509c" x="371.534789" y="65.405638" style="fill: #0000ad; stroke: #0000ad"/>
     <use xlink:href="#mce72b7509c" x="369.348597" y="58.703737" style="fill: #0000ad; stroke: #0000ad"/>
    </g>
   </g>
   <g id="PathCollection_2">
    <defs>
     <path id="mea7fa22871" d="M 0 3 
C 0.795609 3 1.55874 2.683901 2.12132 2.12132 
C 2.683901 1.55874 3 0.795609 3 0 
C 3 -0.795609 2.683901 -1.55874 2.12132 -2.12132 
C 1.55874 -2.683901 0.795609 -3 0 -3 
C -0.795609 -3 -1.55874 -2.683901 -2.12132 -2.12132 
C -2.683901 -1.55874 -3 -0.795609 -3 0 
C -3 0.795609 -2.683901 1.55874 -2.12132 2.12132 
C -1.55874 2.683901 -0.795609 3 0 3 
z
" style="stroke: #00aa8b"/>
    </defs>
    <g clip-path="url(#peda5a3f50b)">
     <use xlink:href="#mea7fa22871" x="414.044068" y="189.099911" style="fill: #00aa8b; stroke: #00aa8b"/>
     <use xlink:href="#mea7fa22871" x="406.529729" y="181.014053" style="fill: #00aa8b; stroke: #00aa8b"/>
     <use xlink:href="#mea7fa22871" x="400.838957" y="171.938122" style="fill: #00aa8b; stroke: #00aa8b"/>
     <use xlink:href="#mea7fa22871" x="401.528152" y="171.127437" style="fill: #00aa8b; stroke: #00aa8b"/>
     <use xlink:href="#mea7fa22871" x="366.529188" y="142.27813" style="fill: #00aa8b; stroke: #00aa8b"/>
     <use xlink:href="#mea7fa22871" x="353.969432" y="128.109273" style="fill: #00aa8b; stroke: #00aa8b"/>
     <use xlink:href="#mea7fa22871" x="345.403422" y="126.0933" style="fill: #00aa8b; stroke: #00aa8b"/>
     <use xlink:href="#mea7fa22871" x="346.246971" y="122.526132" style="fill: #00aa8b; stroke: #00aa8b"/>
    </g>
   </g>
   <g id="PathCollection_3">
    <defs>
     <path id="m24698d8947" d="M 0 3 
C 0.795609 3 1.55874 2.683901 2.12132 2.12132 
C 2.683901 1.55874 3 0.795609 3 0 
C 3 -0.795609 2.683901 -1.55874 2.12132 -2.12132 
C 1.55874 -2.683901 0.795609 -3 0 -3 
C -0.795609 -3 -1.55874 -2.683901 -2.12132 -2.12132 
C -2.683901 -1.55874 -3 -0.795609 -3 0 
C -3 0.795609 -2.683901 1.55874 -2.12132 2.12132 
C -1.55874 2.683901 -0.795609 3 0 3 
z
" style="stroke: #1dff00"/>
    </defs>
    <g clip-path="url(#peda5a3f50b)">
     <use xlink:href="#m24698d8947" x="297.312133" y="255.584398" style="fill: #1dff00; stroke: #1dff00"/>
     <use xlink:href="#m24698d8947" x="298.063204" y="253.667657" style="fill: #1dff00; stroke: #1dff00"/>
     <use xlink:href="#m24698d8947" x="294.733166" y="250.872355" style="fill: #1dff00; stroke: #1dff00"/>
     <use xlink:href="#m24698d8947" x="293.086436" y="246.869048" style="fill: #1dff00; stroke: #1dff00"/>
     <use xlink:href="#m24698d8947" x="290.864699" y="234.164683" style="fill: #1dff00; stroke: #1dff00"/>
     <use xlink:href="#m24698d8947" x="290.722659" y="232.495659" style="fill: #1dff00; stroke: #1dff00"/>
     <use xlink:href="#m24698d8947" x="273.111569" y="232.687149" style="fill: #1dff00; stroke: #1dff00"/>
     <use xlink:href="#m24698d8947" x="259.929958" y="214.843075" style="fill: #1dff00; stroke: #1dff00"/>
     <use xlink:href="#m24698d8947" x="262.320731" y="200.923819" style="fill: #1dff00; stroke: #1dff00"/>
     <use xlink:href="#m24698d8947" x="265.172346" y="193.039841" style="fill: #1dff00; stroke: #1dff00"/>
     <use xlink:href="#m24698d8947" x="273.307451" y="188.671657" style="fill: #1dff00; stroke: #1dff00"/>
     <use xlink:href="#m24698d8947" x="279.227416" y="187.654815" style="fill: #1dff00; stroke: #1dff00"/>
     <use xlink:href="#m24698d8947" x="277.852708" y="184.424106" style="fill: #1dff00; stroke: #1dff00"/>
     <use xlink:href="#m24698d8947" x="277.071438" y="184.508085" style="fill: #1dff00; stroke: #1dff00"/>
     <use xlink:href="#m24698d8947" x="275.261865" y="181.437511" style="fill: #1dff00; stroke: #1dff00"/>
     <use xlink:href="#m24698d8947" x="273.373431" y="178.21339" style="fill: #1dff00; stroke: #1dff00"/>
     <use xlink:href="#m24698d8947" x="275.303828" y="138.674015" style="fill: #1dff00; stroke: #1dff00"/>
     <use xlink:href="#m24698d8947" x="271.056775" y="137.050707" style="fill: #1dff00; stroke: #1dff00"/>
     <use xlink:href="#m24698d8947" x="274.82376" y="136.106939" style="fill: #1dff00; stroke: #1dff00"/>
     <use xlink:href="#m24698d8947" x="274.579427" y="136.164199" style="fill: #1dff00; stroke: #1dff00"/>
     <use xlink:href="#m24698d8947" x="272.653286" y="132.201998" style="fill: #1dff00; stroke: #1dff00"/>
     <use xlink:href="#m24698d8947" x="274.461565" y="131.741968" style="fill: #1dff00; stroke: #1dff00"/>
     <use xlink:href="#m24698d8947" x="266.238574" y="125.736537" style="fill: #1dff00; stroke: #1dff00"/>
     <use xlink:href="#m24698d8947" x="266.935505" y="116.002064" style="fill: #1dff00; stroke: #1dff00"/>
     <use xlink:href="#m24698d8947" x="267.619087" y="114.07163" style="fill: #1dff00; stroke: #1dff00"/>
     <use xlink:href="#m24698d8947" x="269.678168" y="110.089909" style="fill: #1dff00; stroke: #1dff00"/>
     <use xlink:href="#m24698d8947" x="269.373594" y="110.12956" style="fill: #1dff00; stroke: #1dff00"/>
     <use xlink:href="#m24698d8947" x="265.480564" y="107.51354" style="fill: #1dff00; stroke: #1dff00"/>
     <use xlink:href="#m24698d8947" x="264.698298" y="106.793138" style="fill: #1dff00; stroke: #1dff00"/>
     <use xlink:href="#m24698d8947" x="269.929496" y="102.902094" style="fill: #1dff00; stroke: #1dff00"/>
    </g>
   </g>
   <g id="PathCollection_4">
    <defs>
     <path id="m0f864cf6be" d="M 0 3 
C 0.795609 3 1.55874 2.683901 2.12132 2.12132 
C 2.683901 1.55874 3 0.795609 3 0 
C 3 -0.795609 2.683901 -1.55874 2.12132 -2.12132 
C 1.55874 -2.683901 0.795609 -3 0 -3 
C -0.795609 -3 -1.55874 -2.683901 -2.12132 -2.12132 
C -2.683901 -1.55874 -3 -0.795609 -3 0 
C -3 0.795609 -2.683901 1.55874 -2.12132 2.12132 
C -1.55874 2.683901 -0.795609 3 0 3 
z
" style="stroke: #ffb900"/>
    </defs>
    <g clip-path="url(#peda5a3f50b)">
     <use xlink:href="#m0f864cf6be" x="169.857358" y="245.033422" style="fill: #ffb900; stroke: #ffb900"/>
     <use xlink:href="#m0f864cf6be" x="147.598332" y="232.896466" style="fill: #ffb900; stroke: #ffb900"/>
     <use xlink:href="#m0f864cf6be" x="175.126113" y="241.558747" style="fill: #ffb900; stroke: #ffb900"/>
     <use xlink:href="#m0f864cf6be" x="185.793053" y="238.945228" style="fill: #ffb900; stroke: #ffb900"/>
     <use xlink:href="#m0f864cf6be" x="173.28885" y="232.536024" style="fill: #ffb900; stroke: #ffb900"/>
     <use xlink:href="#m0f864cf6be" x="162.819915" y="223.299029" style="fill: #ffb900; stroke: #ffb900"/>
     <use xlink:href="#m0f864cf6be" x="154.796747" y="216.305232" style="fill: #ffb900; stroke: #ffb900"/>
     <use xlink:href="#m0f864cf6be" x="159.52574" y="204.312777" style="fill: #ffb900; stroke: #ffb900"/>
     <use xlink:href="#m0f864cf6be" x="149.03704" y="198.061634" style="fill: #ffb900; stroke: #ffb900"/>
     <use xlink:href="#m0f864cf6be" x="155.907647" y="198.324814" style="fill: #ffb900; stroke: #ffb900"/>
     <use xlink:href="#m0f864cf6be" x="169.780605" y="181.544407" style="fill: #ffb900; stroke: #ffb900"/>
     <use xlink:href="#m0f864cf6be" x="175.52328" y="180.833342" style="fill: #ffb900; stroke: #ffb900"/>
     <use xlink:href="#m0f864cf6be" x="170.708503" y="178.144032" style="fill: #ffb900; stroke: #ffb900"/>
     <use xlink:href="#m0f864cf6be" x="187.223233" y="184.525684" style="fill: #ffb900; stroke: #ffb900"/>
     <use xlink:href="#m0f864cf6be" x="186.362952" y="184.145374" style="fill: #ffb900; stroke: #ffb900"/>
     <use xlink:href="#m0f864cf6be" x="196.275664" y="182.781493" style="fill: #ffb900; stroke: #ffb900"/>
     <use xlink:href="#m0f864cf6be" x="191.415241" y="163.858888" style="fill: #ffb900; stroke: #ffb900"/>
     <use xlink:href="#m0f864cf6be" x="190.979956" y="162.875056" style="fill: #ffb900; stroke: #ffb900"/>
     <use xlink:href="#m0f864cf6be" x="192.124248" y="163.421854" style="fill: #ffb900; stroke: #ffb900"/>
     <use xlink:href="#m0f864cf6be" x="207.712862" y="143.07702" style="fill: #ffb900; stroke: #ffb900"/>
     <use xlink:href="#m0f864cf6be" x="214.706657" y="145.716694" style="fill: #ffb900; stroke: #ffb900"/>
     <use xlink:href="#m0f864cf6be" x="203.589622" y="140.403377" style="fill: #ffb900; stroke: #ffb900"/>
     <use xlink:href="#m0f864cf6be" x="211.591574" y="141.100071" style="fill: #ffb900; stroke: #ffb900"/>
     <use xlink:href="#m0f864cf6be" x="214.022074" y="141.887028" style="fill: #ffb900; stroke: #ffb900"/>
     <use xlink:href="#m0f864cf6be" x="212.120349" y="141.181566" style="fill: #ffb900; stroke: #ffb900"/>
     <use xlink:href="#m0f864cf6be" x="211.776289" y="136.405137" style="fill: #ffb900; stroke: #ffb900"/>
     <use xlink:href="#m0f864cf6be" x="214.646569" y="130.319914" style="fill: #ffb900; stroke: #ffb900"/>
     <use xlink:href="#m0f864cf6be" x="215.665232" y="130.698675" style="fill: #ffb900; stroke: #ffb900"/>
     <use xlink:href="#m0f864cf6be" x="207.707508" y="126.305801" style="fill: #ffb900; stroke: #ffb900"/>
     <use xlink:href="#m0f864cf6be" x="217.357661" y="120.329299" style="fill: #ffb900; stroke: #ffb900"/>
     <use xlink:href="#m0f864cf6be" x="217.457287" y="118.510702" style="fill: #ffb900; stroke: #ffb900"/>
     <use xlink:href="#m0f864cf6be" x="220.483696" y="116.030415" style="fill: #ffb900; stroke: #ffb900"/>
     <use xlink:href="#m0f864cf6be" x="224.15507" y="110.09423" style="fill: #ffb900; stroke: #ffb900"/>
    </g>
   </g>
   <g id="PathCollection_5">
    <defs>
     <path id="m1bec0c72a7" d="M 0 3 
C 0.795609 3 1.55874 2.683901 2.12132 2.12132 
C 2.683901 1.55874 3 0.795609 3 0 
C 3 -0.795609 2.683901 -1.55874 2.12132 -2.12132 
C 1.55874 -2.683901 0.795609 -3 0 -3 
C -0.795609 -3 -1.55874 -2.683901 -2.12132 -2.12132 
C -2.683901 -1.55874 -3 -0.795609 -3 0 
C -3 0.795609 -2.683901 1.55874 -2.12132 2.12132 
C -1.55874 2.683901 -0.795609 3 0 3 
z
" style="stroke: #e60000"/>
    </defs>
    <g clip-path="url(#peda5a3f50b)">
     <use xlink:href="#m1bec0c72a7" x="59.503303" y="150.322428" style="fill: #e60000; stroke: #e60000"/>
     <use xlink:href="#m1bec0c72a7" x="91.958775" y="191.88519" style="fill: #e60000; stroke: #e60000"/>
     <use xlink:href="#m1bec0c72a7" x="79.227037" y="163.325981" style="fill: #e60000; stroke: #e60000"/>
     <use xlink:href="#m1bec0c72a7" x="82.71575" y="148.673573" style="fill: #e60000; stroke: #e60000"/>
     <use xlink:href="#m1bec0c72a7" x="84.130436" y="131.277633" style="fill: #e60000; stroke: #e60000"/>
     <use xlink:href="#m1bec0c72a7" x="87.495005" y="137.102246" style="fill: #e60000; stroke: #e60000"/>
     <use xlink:href="#m1bec0c72a7" x="85.952044" y="127.539786" style="fill: #e60000; stroke: #e60000"/>
     <use xlink:href="#m1bec0c72a7" x="94.363798" y="117.592477" style="fill: #e60000; stroke: #e60000"/>
     <use xlink:href="#m1bec0c72a7" x="103.024088" y="129.788247" style="fill: #e60000; stroke: #e60000"/>
     <use xlink:href="#m1bec0c72a7" x="119.623065" y="141.576293" style="fill: #e60000; stroke: #e60000"/>
     <use xlink:href="#m1bec0c72a7" x="109.302529" y="114.68612" style="fill: #e60000; stroke: #e60000"/>
     <use xlink:href="#m1bec0c72a7" x="132.691253" y="124.906652" style="fill: #e60000; stroke: #e60000"/>
     <use xlink:href="#m1bec0c72a7" x="136.38769" y="129.736292" style="fill: #e60000; stroke: #e60000"/>
     <use xlink:href="#m1bec0c72a7" x="140.995887" y="127.306121" style="fill: #e60000; stroke: #e60000"/>
     <use xlink:href="#m1bec0c72a7" x="134.735546" y="115.887421" style="fill: #e60000; stroke: #e60000"/>
     <use xlink:href="#m1bec0c72a7" x="128.755822" y="106.003418" style="fill: #e60000; stroke: #e60000"/>
     <use xlink:href="#m1bec0c72a7" x="134.122134" y="114.918454" style="fill: #e60000; stroke: #e60000"/>
     <use xlink:href="#m1bec0c72a7" x="128.121138" y="104.795722" style="fill: #e60000; stroke: #e60000"/>
     <use xlink:href="#m1bec0c72a7" x="154.832603" y="118.621537" style="fill: #e60000; stroke: #e60000"/>
     <use xlink:href="#m1bec0c72a7" x="155.245376" y="116.423209" style="fill: #e60000; stroke: #e60000"/>
     <use xlink:href="#m1bec0c72a7" x="165.229274" y="127.332468" style="fill: #e60000; stroke: #e60000"/>
     <use xlink:href="#m1bec0c72a7" x="167.877304" y="117.708056" style="fill: #e60000; stroke: #e60000"/>
     <use xlink:href="#m1bec0c72a7" x="154.77434" y="101.059297" style="fill: #e60000; stroke: #e60000"/>
     <use xlink:href="#m1bec0c72a7" x="168.111541" y="95.045075" style="fill: #e60000; stroke: #e60000"/>
     <use xlink:href="#m1bec0c72a7" x="180.213214" y="91.345069" style="fill: #e60000; stroke: #e60000"/>
     <use xlink:href="#m1bec0c72a7" x="177.311555" y="82.346328" style="fill: #e60000; stroke: #e60000"/>
    </g>
   </g>
   <g id="PathCollection_6">
    <defs>
     <path id="m3466cdc8c9" d="M 0 3 
C 0.795609 3 1.55874 2.683901 2.12132 2.12132 
C 2.683901 1.55874 3 0.795609 3 0 
C 3 -0.795609 2.683901 -1.55874 2.12132 -2.12132 
C 1.55874 -2.683901 0.795609 -3 0 -3 
C -0.795609 -3 -1.55874 -2.683901 -2.12132 -2.12132 
C -2.683901 -1.55874 -3 -0.795609 -3 0 
C -3 0.795609 -2.683901 1.55874 -2.12132 2.12132 
C -1.55874 2.683901 -0.795609 3 0 3 
z
" style="stroke: #cc6c6c"/>
    </defs>
    <g clip-path="url(#peda5a3f50b)">
     <use xlink:href="#m3466cdc8c9" x="32.203917" y="74.046127" style="fill: #cc6c6c; stroke: #cc6c6c"/>
     <use xlink:href="#m3466cdc8c9" x="34.282781" y="85.089165" style="fill: #cc6c6c; stroke: #cc6c6c"/>
     <use xlink:href="#m3466cdc8c9" x="32.588077" y="64.247479" style="fill: #cc6c6c; stroke: #cc6c6c"/>
     <use xlink:href="#m3466cdc8c9" x="47.843988" y="120.694177" style="fill: #cc6c6c; stroke: #cc6c6c"/>
     <use xlink:href="#m3466cdc8c9" x="32.616799" y="55.692252" style="fill: #cc6c6c; stroke: #cc6c6c"/>
     <use xlink:href="#m3466cdc8c9" x="49.671203" y="122.851555" style="fill: #cc6c6c; stroke: #cc6c6c"/>
     <use xlink:href="#m3466cdc8c9" x="34.877016" y="68.634381" style="fill: #cc6c6c; stroke: #cc6c6c"/>
     <use xlink:href="#m3466cdc8c9" x="54.280402" y="43.06474" style="fill: #cc6c6c; stroke: #cc6c6c"/>
     <use xlink:href="#m3466cdc8c9" x="81.020991" y="77.965526" style="fill: #cc6c6c; stroke: #cc6c6c"/>
     <use xlink:href="#m3466cdc8c9" x="78.380247" y="47.897382" style="fill: #cc6c6c; stroke: #cc6c6c"/>
     <use xlink:href="#m3466cdc8c9" x="81.396251" y="61.345192" style="fill: #cc6c6c; stroke: #cc6c6c"/>
     <use xlink:href="#m3466cdc8c9" x="116.683215" y="94.577841" style="fill: #cc6c6c; stroke: #cc6c6c"/>
     <use xlink:href="#m3466cdc8c9" x="114.3086" y="70.535749" style="fill: #cc6c6c; stroke: #cc6c6c"/>
     <use xlink:href="#m3466cdc8c9" x="132.327947" y="75.148363" style="fill: #cc6c6c; stroke: #cc6c6c"/>
     <use xlink:href="#m3466cdc8c9" x="128.900398" y="47.550551" style="fill: #cc6c6c; stroke: #cc6c6c"/>
     <use xlink:href="#m3466cdc8c9" x="132.216028" y="68.342654" style="fill: #cc6c6c; stroke: #cc6c6c"/>
     <use xlink:href="#m3466cdc8c9" x="136.488194" y="44.973721" style="fill: #cc6c6c; stroke: #cc6c6c"/>
     <use xlink:href="#m3466cdc8c9" x="143.122423" y="77.60215" style="fill: #cc6c6c; stroke: #cc6c6c"/>
     <use xlink:href="#m3466cdc8c9" x="168.395416" y="57.716452" style="fill: #cc6c6c; stroke: #cc6c6c"/>
     <use xlink:href="#m3466cdc8c9" x="175.016532" y="55.919597" style="fill: #cc6c6c; stroke: #cc6c6c"/>
     <use xlink:href="#m3466cdc8c9" x="175.072645" y="56.129961" style="fill: #cc6c6c; stroke: #cc6c6c"/>
    </g>
   </g>
   <g id="line2d_1">
    <path d="M 317.618182 38.726329 
L 317.584693 40.836813 
L 317.484259 42.945173 
L 317.316982 45.049284 
L 317.083031 47.147029 
L 316.78264 49.236294 
L 316.416112 51.314977 
L 315.983816 53.380985 
L 315.486188 55.432236 
L 314.923728 57.466666 
L 314.297003 59.482226 
L 313.606645 61.476887 
L 312.853347 63.44864 
L 312.037869 65.395499 
L 311.161032 67.315505 
L 310.223718 69.206724 
L 309.226872 71.067252 
L 308.171497 72.895215 
L 307.058655 74.688773 
L 305.889469 76.44612 
L 304.665113 78.165486 
L 303.386823 79.845141 
L 302.055884 81.483392 
L 300.673636 83.07859 
L 299.241472 84.62913 
L 297.760834 86.133449 
L 296.233212 87.590034 
L 294.660145 88.997416 
L 293.043217 90.35418 
L 291.384055 91.65896 
L 289.684331 92.91044 
L 287.945756 94.107362 
L 286.17008 95.248519 
L 284.359091 96.332764 
L 282.514613 97.359004 
L 280.638504 98.326206 
L 278.732651 99.233395 
L 276.798975 100.079659 
L 274.839423 100.864146 
L 272.855966 101.586065 
L 270.850604 102.24469 
L 268.825354 102.839357 
L 266.782256 103.369467 
L 264.723367 103.834488 
L 262.650761 104.23395 
L 260.566524 104.567451 
L 258.472756 104.834656 
L 256.371563 105.035296 
L 254.265063 105.169168 
L 252.155375 105.236138 
L 250.044625 105.236138 
L 247.934937 105.169168 
L 245.828437 105.035296 
L 243.727244 104.834656 
L 241.633476 104.567451 
L 239.549239 104.23395 
L 237.476633 103.834488 
L 235.417744 103.369467 
L 233.374646 102.839357 
L 231.349396 102.24469 
L 229.344034 101.586065 
L 227.360577 100.864146 
L 225.401025 100.079659 
L 223.467349 99.233395 
L 221.561496 98.326206 
L 219.685387 97.359004 
L 217.840909 96.332764 
L 216.02992 95.248519 
L 214.254244 94.107362 
L 212.515669 92.91044 
L 210.815945 91.65896 
L 209.156783 90.35418 
L 207.539855 88.997416 
L 205.966788 87.590034 
L 204.439166 86.133449 
L 202.958528 84.62913 
L 201.526364 83.07859 
L 200.144116 81.483392 
L 198.813177 79.845141 
L 197.534887 78.165486 
L 196.310531 76.44612 
L 195.141345 74.688773 
L 194.028503 72.895215 
L 192.973128 71.067252 
L 191.976282 69.206724 
L 191.038968 67.315505 
L 190.162131 65.395499 
L 189.346653 63.44864 
L 188.593355 61.476887 
L 187.902997 59.482226 
L 187.276272 57.466666 
L 186.713812 55.432236 
L 186.216184 53.380985 
L 185.783888 51.314977 
L 185.41736 49.236294 
L 185.116969 47.147029 
L 184.883018 45.049284 
L 184.715741 42.945173 
L 184.615307 40.836813 
L 184.581818 38.726329 
" clip-path="url(#peda5a3f50b)" style="fill: none; stroke: #ffffff; stroke-width: 0.8; stroke-linecap: square"/>
   </g>
   <g id="line2d_2">
    <path d="M 369.068709 38.726329 
L 369.009317 42.469232 
L 368.8312 46.208367 
L 368.534538 49.939968 
L 368.119629 53.660277 
L 367.586891 57.36555 
L 366.936861 61.052054 
L 366.170193 64.716078 
L 365.287659 68.353933 
L 364.290148 71.961955 
L 363.178663 75.536512 
L 361.954326 79.074004 
L 360.618367 82.570869 
L 359.172132 86.023587 
L 357.617078 89.42868 
L 355.954771 92.78272 
L 354.186883 96.08233 
L 352.315196 99.324188 
L 350.341593 102.505028 
L 348.268063 105.621649 
L 346.096693 108.670912 
L 343.829669 111.649746 
L 341.469274 114.555153 
L 339.017885 117.384207 
L 336.47797 120.134059 
L 333.852087 122.80194 
L 331.142879 125.385164 
L 328.353075 127.881131 
L 325.485484 130.287325 
L 322.542993 132.601326 
L 319.528565 134.820802 
L 316.445235 136.94352 
L 313.296108 138.967341 
L 310.084355 140.890228 
L 306.813209 142.710244 
L 303.485965 144.425558 
L 300.105973 146.034441 
L 296.676636 147.535274 
L 293.201407 148.926546 
L 289.683785 150.206856 
L 286.127313 151.374914 
L 282.535572 152.429544 
L 278.912177 153.369685 
L 275.260778 154.19439 
L 271.585051 154.902828 
L 267.888698 155.494287 
L 264.175439 155.96817 
L 260.449015 156.324 
L 256.713177 156.561419 
L 252.971687 156.680189 
L 249.228313 156.680189 
L 245.486823 156.561419 
L 241.750985 156.324 
L 238.024561 155.96817 
L 234.311302 155.494287 
L 230.614949 154.902828 
L 226.939222 154.19439 
L 223.287823 153.369685 
L 219.664428 152.429544 
L 216.072687 151.374914 
L 212.516215 150.206856 
L 208.998593 148.926546 
L 205.523364 147.535274 
L 202.094027 146.034441 
L 198.714035 144.425558 
L 195.386791 142.710244 
L 192.115645 140.890228 
L 188.903892 138.967341 
L 185.754765 136.94352 
L 182.671435 134.820802 
L 179.657007 132.601326 
L 176.714516 130.287325 
L 173.846925 127.881131 
L 171.057121 125.385164 
L 168.347913 122.80194 
L 165.72203 120.134059 
L 163.182115 117.384207 
L 160.730726 114.555153 
L 158.370331 111.649746 
L 156.103307 108.670912 
L 153.931937 105.621649 
L 151.858407 102.505028 
L 149.884804 99.324188 
L 148.013117 96.08233 
L 146.245229 92.78272 
L 144.582922 89.42868 
L 143.027868 86.023587 
L 141.581633 82.570869 
L 140.245674 79.074004 
L 139.021337 75.536512 
L 137.909852 71.961955 
L 136.912341 68.353933 
L 136.029807 64.716078 
L 135.263139 61.052054 
L 134.613109 57.36555 
L 134.080371 53.660277 
L 133.665462 49.939968 
L 133.3688 46.208367 
L 133.190683 42.469232 
L 133.131291 38.726329 
" clip-path="url(#peda5a3f50b)" style="fill: none; stroke: #ffffff; stroke-width: 0.8; stroke-linecap: square"/>
   </g>
   <g id="line2d_3">
    <path d="M 421.376745 38.726329 
L 421.291018 44.128858 
L 421.033923 49.525947 
L 420.605719 54.912162 
L 420.006837 60.28208 
L 419.23788 65.630292 
L 418.299623 70.951415 
L 417.193009 76.240089 
L 415.919155 81.490991 
L 414.479341 86.698832 
L 412.875018 91.858368 
L 411.107801 96.964406 
L 409.17947 102.011802 
L 407.091967 106.995475 
L 404.847392 111.910408 
L 402.448007 116.75165 
L 399.896228 121.514327 
L 397.194623 126.193643 
L 394.345914 130.784888 
L 391.352968 135.283437 
L 388.218799 139.684761 
L 384.946563 143.984429 
L 381.539555 148.178111 
L 378.001205 152.261584 
L 374.335077 156.230737 
L 370.544861 160.081573 
L 366.634374 163.810214 
L 362.607554 167.412907 
L 358.468456 170.886023 
L 354.221246 174.226065 
L 349.870203 177.429671 
L 345.419706 180.493614 
L 340.874237 183.414809 
L 336.238373 186.190316 
L 331.516782 188.817339 
L 326.714218 191.293233 
L 321.835516 193.615504 
L 316.885591 195.781816 
L 311.869424 197.789986 
L 306.792068 199.637993 
L 301.658635 201.323975 
L 296.474294 202.846235 
L 291.244264 204.20324 
L 285.973813 205.393624 
L 280.668247 206.416188 
L 275.332907 207.269902 
L 269.973168 207.953908 
L 264.594425 208.467516 
L 259.202094 208.810208 
L 253.801605 208.981641 
L 248.398395 208.981641 
L 242.997906 208.810208 
L 237.605575 208.467516 
L 232.226832 207.953908 
L 226.867093 207.269902 
L 221.531753 206.416188 
L 216.226187 205.393624 
L 210.955736 204.20324 
L 205.725706 202.846235 
L 200.541365 201.323975 
L 195.407932 199.637993 
L 190.330576 197.789986 
L 185.314409 195.781816 
L 180.364484 193.615504 
L 175.485782 191.293233 
L 170.683218 188.817339 
L 165.961627 186.190316 
L 161.325763 183.414809 
L 156.780294 180.493614 
L 152.329797 177.429671 
L 147.978754 174.226065 
L 143.731544 170.886023 
L 139.592446 167.412907 
L 135.565626 163.810214 
L 131.655139 160.081573 
L 127.864923 156.230737 
L 124.198795 152.261584 
L 120.660445 148.178111 
L 117.253437 143.984429 
L 113.981201 139.684761 
L 110.847032 135.283437 
L 107.854086 130.784888 
L 105.005377 126.193643 
L 102.303772 121.514327 
L 99.751993 116.75165 
L 97.352608 111.910408 
L 95.108033 106.995475 
L 93.02053 102.011802 
L 91.092199 96.964406 
L 89.324982 91.858368 
L 87.720659 86.698832 
L 86.280845 81.490991 
L 85.006991 76.240089 
L 83.900377 70.951415 
L 82.96212 65.630292 
L 82.193163 60.28208 
L 81.594281 54.912162 
L 81.166077 49.525947 
L 80.908982 44.128858 
L 80.823255 38.726329 
" clip-path="url(#peda5a3f50b)" style="fill: none; stroke: #ffffff; stroke-width: 0.8; stroke-linecap: square"/>
   </g>
   <g id="line2d_4">
    <path d="M 317.618182 38.726329 
L 472.827273 38.726329 
L 472.715642 45.761277 
L 472.380864 52.789142 
L 471.823274 59.802846 
L 471.043435 66.795328 
L 470.042132 73.759547 
L 468.820372 80.688491 
L 467.379386 87.575182 
L 465.720626 94.412687 
L 463.84576 101.19412 
L 461.756678 107.912654 
L 459.455482 114.561522 
L 456.94449 121.134031 
L 454.22623 127.623563 
L 451.303439 134.023582 
L 448.17906 140.327646 
L 444.856239 146.529405 
L 441.338322 152.622616 
L 437.628852 158.601143 
L 433.731562 164.458966 
L 429.650378 170.190187 
L 425.389409 175.789035 
L 420.952945 181.249872 
L 416.345454 186.567201 
L 411.571574 191.735666 
L 406.636114 196.750064 
L 401.544041 201.605345 
L 396.300485 206.296621 
L 390.910723 210.819168 
L 385.380184 215.168431 
L 379.714437 219.340033 
L 373.919185 223.329772 
L 368.000265 227.133631 
L 361.963636 230.74778 
L 355.815377 234.168579 
L 349.561679 237.392585 
L 343.208838 240.41655 
L 336.763251 243.237431 
L 330.231409 245.852386 
L 323.619888 248.258783 
L 316.935345 250.454199 
L 310.184512 252.436422 
L 303.374186 254.203457 
L 296.511224 255.753526 
L 289.602537 257.085066 
L 282.655081 258.196738 
L 275.675852 259.087421 
L 268.671877 259.75622 
L 261.650208 260.20246 
L 254.617917 260.425692 
L 247.582083 260.425692 
L 240.549792 260.20246 
L 233.528123 259.75622 
L 226.524148 259.087421 
L 219.544919 258.196738 
L 212.597463 257.085066 
L 205.688776 255.753526 
L 198.825814 254.203457 
L 192.015488 252.436422 
L 185.264655 250.454199 
L 178.580112 248.258783 
L 171.968591 245.852386 
L 165.436749 243.237431 
L 158.991162 240.41655 
L 152.638321 237.392585 
L 146.384623 234.168579 
L 140.236364 230.74778 
L 134.199735 227.133631 
L 128.280815 223.329772 
L 122.485563 219.340033 
L 116.819816 215.168431 
L 111.289277 210.819168 
L 105.899515 206.296621 
L 100.655959 201.605345 
L 95.563886 196.750064 
L 90.628426 191.735666 
L 85.854546 186.567201 
L 81.247055 181.249872 
L 76.810591 175.789035 
L 72.549622 170.190187 
L 68.468438 164.458966 
L 64.571148 158.601143 
L 60.861678 152.622616 
L 57.343761 146.529405 
L 54.02094 140.327646 
L 50.896561 134.023582 
L 47.97377 127.623563 
L 45.25551 121.134031 
L 42.744518 114.561522 
L 40.443322 107.912654 
L 38.35424 101.19412 
L 36.479374 94.412687 
L 34.820614 87.575182 
L 33.379628 80.688491 
L 32.157868 73.759547 
L 31.156565 66.795328 
L 30.376726 59.802846 
L 29.819136 52.789142 
L 29.484358 45.761277 
L 29.372727 38.726329 
L 184.581818 38.726329 
" clip-path="url(#peda5a3f50b)" style="fill: none; stroke: #ffffff; stroke-width: 0.8; stroke-linecap: square"/>
   </g>
   <g id="line2d_5">
    <path d="M 316.340054 51.703382 
L 316.340054 51.703382 
" clip-path="url(#peda5a3f50b)" style="fill: none; stroke: #ffffff; stroke-width: 0.8; stroke-linecap: square"/>
   </g>
   <g id="line2d_6">
    <path d="M 280.430739 98.428726 
L 280.430739 98.428726 
" clip-path="url(#peda5a3f50b)" style="fill: none; stroke: #ffffff; stroke-width: 0.8; stroke-linecap: square"/>
   </g>
   <g id="line2d_7">
    <path d="M 221.769261 98.428726 
L 221.769261 98.428726 
" clip-path="url(#peda5a3f50b)" style="fill: none; stroke: #ffffff; stroke-width: 0.8; stroke-linecap: square"/>
   </g>
   <g id="line2d_8">
    <path d="M 185.859946 51.703382 
L 185.859946 51.703382 
" clip-path="url(#peda5a3f50b)" style="fill: none; stroke: #ffffff; stroke-width: 0.8; stroke-linecap: square"/>
   </g>
   <g id="line2d_9">
    <path d="M 316.340054 51.703382 
L 316.155534 52.598818 
L 315.958726 53.491633 
L 315.749665 54.381659 
L 315.528391 55.268728 
L 315.294946 56.152672 
L 315.049374 57.033323 
L 314.791722 57.910516 
L 314.522038 58.784086 
L 314.240373 59.653866 
L 313.94678 60.519693 
L 313.641316 61.381403 
L 313.324036 62.238833 
L 312.995002 63.091821 
L 312.654276 63.940207 
L 312.301921 64.783829 
L 311.938005 65.62253 
L 311.562597 66.456149 
L 311.175766 67.28453 
L 310.777587 68.107516 
L 310.368134 68.924951 
L 309.947485 69.736682 
L 309.515719 70.542555 
L 309.072918 71.342418 
L 308.619166 72.136119 
L 308.154548 72.923509 
L 307.679151 73.704438 
L 307.193067 74.47876 
L 306.696386 75.246328 
L 306.189203 76.006998 
L 305.671612 76.760624 
L 305.143713 77.507066 
L 304.605605 78.246182 
L 304.057389 78.977832 
L 303.499169 79.701878 
L 302.93105 80.418184 
L 302.35314 81.126614 
L 301.765548 81.827034 
L 301.168385 82.519312 
L 300.561763 83.203317 
L 299.945798 83.87892 
L 299.320606 84.545994 
L 298.686304 85.204412 
L 298.043013 85.854049 
L 297.390854 86.494784 
L 296.72995 87.126496 
L 296.060427 87.749064 
L 295.38241 88.362371 
L 294.696028 88.966302 
L 294.00141 89.560742 
L 293.298688 90.145579 
L 292.587994 90.720702 
L 291.869463 91.286004 
L 291.14323 91.841376 
L 290.409433 92.386715 
L 289.66821 92.921917 
L 288.919701 93.44688 
L 288.164047 93.961507 
L 287.401392 94.465699 
L 286.631879 94.959362 
L 285.855655 95.442402 
L 285.072864 95.914728 
L 284.283656 96.376251 
L 283.488179 96.826883 
L 282.686584 97.266539 
L 281.879022 97.695137 
L 281.065645 98.112595 
L 280.246608 98.518835 
L 279.422064 98.913779 
L 278.592171 99.297354 
L 277.757084 99.669486 
L 276.916961 100.030106 
L 276.071961 100.379144 
L 275.222244 100.716537 
L 274.36797 101.042218 
L 273.509301 101.356128 
L 272.646398 101.658207 
L 271.779425 101.948397 
L 270.908545 102.226644 
L 270.033924 102.492896 
L 269.155725 102.747101 
L 268.274116 102.989213 
L 267.389263 103.219185 
L 266.501332 103.436973 
L 265.610492 103.642537 
L 264.716911 103.835839 
L 263.820757 104.01684 
L 262.9222 104.185508 
L 262.021411 104.341809 
L 261.118557 104.485716 
L 260.213812 104.6172 
L 259.307345 104.736237 
L 258.399327 104.842804 
L 257.48993 104.936882 
L 256.579327 105.018451 
L 255.667688 105.087498 
L 254.755186 105.144008 
L 253.841994 105.187972 
L 252.928284 105.21938 
L 252.014228 105.238228 
" clip-path="url(#peda5a3f50b)" style="fill: none; stroke: #ffffff; stroke-width: 0.8; stroke-linecap: square"/>
   </g>
   <g id="line2d_10">
    <path d="M 312.474315 64.375148 
L 455.681051 124.222394 
" clip-path="url(#peda5a3f50b)" style="fill: none; stroke: #ffffff; stroke-width: 1.5; stroke-linecap: square"/>
   </g>
   <g id="line2d_11">
    <path d="M 317.617852 38.935815 
L 472.826173 39.424615 
" clip-path="url(#peda5a3f50b)" style="fill: none; stroke: #ffffff; stroke-width: 1.5; stroke-linecap: square"/>
   </g>
   <g id="line2d_12">
    <path d="M 290.319363 92.45258 
L 381.831209 217.813834 
" clip-path="url(#peda5a3f50b)" style="fill: none; stroke: #ffffff; stroke-width: 1.5; stroke-linecap: square"/>
   </g>
   <g id="line2d_13">
    <path d="M 307.894113 73.354312 
L 440.41371 154.152941 
" clip-path="url(#peda5a3f50b)" style="fill: none; stroke: #ffffff; stroke-width: 1.5; stroke-linecap: square"/>
   </g>
   <g id="line2d_14">
    <path d="M 251.266734 105.244302 
L 251.655779 260.452905 
" clip-path="url(#peda5a3f50b)" style="fill: none; stroke: #ffffff; stroke-width: 1.5; stroke-linecap: square"/>
   </g>
   <g id="line2d_15">
    <path d="M 276.709368 100.117116 
L 336.46456 243.362287 
" clip-path="url(#peda5a3f50b)" style="fill: none; stroke: #ffffff; stroke-width: 1.5; stroke-linecap: square"/>
   </g>
   <g id="line2d_16">
    <path d="M 213.942108 93.898419 
L 127.240359 222.633296 
" clip-path="url(#peda5a3f50b)" style="fill: none; stroke: #ffffff; stroke-width: 1.5; stroke-linecap: square"/>
   </g>
   <g id="line2d_17">
    <path d="M 237.884029 103.918404 
L 207.046762 256.033245 
" clip-path="url(#peda5a3f50b)" style="fill: none; stroke: #ffffff; stroke-width: 1.5; stroke-linecap: square"/>
   </g>
   <g id="line2d_18">
    <path d="M 191.583528 68.432525 
L 52.711761 137.746984 
" clip-path="url(#peda5a3f50b)" style="fill: none; stroke: #ffffff; stroke-width: 1.5; stroke-linecap: square"/>
   </g>
   <g id="line2d_19">
    <path d="M 207.482019 88.947243 
L 105.706731 206.129378 
" clip-path="url(#peda5a3f50b)" style="fill: none; stroke: #ffffff; stroke-width: 1.5; stroke-linecap: square"/>
   </g>
   <g id="line2d_20">
    <path d="M 184.582249 38.965741 
L 29.374163 39.524369 
" clip-path="url(#peda5a3f50b)" style="fill: none; stroke: #ffffff; stroke-width: 1.5; stroke-linecap: square"/>
   </g>
   <g id="line2d_21">
    <path d="M 189.73723 64.402758 
L 46.557435 124.314426 
" clip-path="url(#peda5a3f50b)" style="fill: none; stroke: #ffffff; stroke-width: 1.5; stroke-linecap: square"/>
   </g>
   <g id="line2d_22">
    <path d="M 468.006054 84.712711 
L 467.050538 84.260887 
L 466.154686 83.522251 
L 465.287027 82.639734 
L 464.428044 81.703151 
L 463.56654 80.766045 
L 462.696844 79.857404 
L 461.816819 78.989814 
L 460.926506 78.165077 
L 460.02723 77.378055 
L 459.121027 76.619292 
L 458.210268 75.876791 
L 457.297418 75.137257 
L 456.384849 74.387053 
L 455.474689 73.613046 
L 454.568657 72.803558 
L 453.667856 71.949597 
L 452.772523 71.046605 
L 451.88169 70.097008 
L 450.992759 69.113928 
L 450.100949 68.126548 
L 449.198561 67.187796 
L 448.273881 66.385234 
L 447.309296 65.856396 
L 446.2818 65.779649 
L 445.200383 66.088023 
L 444.08931 66.59506 
L 442.96457 67.179094 
L 441.83667 67.764997 
L 440.712362 68.309041 
L 439.595725 68.788344 
L 438.488948 69.193326 
L 437.392994 69.522171 
L 436.307935 69.778012 
L 435.233261 69.966783 
L 434.168124 70.095709 
L 433.111511 70.172362 
L 432.062361 70.204088 
L 431.019637 70.197689 
L 429.982376 70.159266 
L 428.949709 70.094173 
L 427.920871 70.007023 
L 426.895199 69.901742 
L 425.87213 69.781637 
L 424.851189 69.649463 
L 423.831977 69.507505 
L 422.814167 69.357643 
L 421.797487 69.201418 
L 420.781716 69.040083 
L 419.766674 68.87466 
L 418.752215 68.705972 
L 417.738219 68.534685 
L 416.724591 68.361337 
L 415.711255 68.18636 
L 414.698148 68.0101 
L 413.685221 67.832838 
L 412.672432 67.654801 
L 411.659749 67.476173 
L 410.647144 67.297105 
L 409.634595 67.117726 
L 408.622083 66.938144 
L 407.609589 66.758457 
L 406.597098 66.578754 
L 405.584595 66.399122 
L 404.572062 66.219653 
L 403.559483 66.040441 
L 402.546839 65.861594 
L 401.534107 65.683235 
L 400.521262 65.50551 
L 399.508272 65.328592 
L 398.495099 65.152688 
L 397.4817 64.978049 
L 396.468019 64.804979 
L 395.45399 64.633844 
L 394.439534 64.465086 
L 393.424554 64.299237 
L 392.408935 64.136931 
L 391.392539 63.978922 
L 390.375205 63.826101 
L 389.35674 63.679508 
L 388.336922 63.540346 
L 387.315494 63.409986 
L 386.292168 63.289962 
L 385.266622 63.18195 
L 384.23851 63.087719 
L 383.207476 63.00904 
L 382.173179 62.94754 
L 381.135335 62.904461 
L 380.093782 62.8803 
L 379.04859 62.874267 
L 378.000218 62.883495 
L 376.949753 62.901894 
L 375.899261 62.918519 
L 374.852281 62.915264 
L 373.814514 62.863613 
L 372.794714 62.720094 
L 371.805456 62.421383 
L 370.847663 61.960645 
L 369.902466 61.430922 
L 368.953731 60.914743 
" clip-path="url(#peda5a3f50b)" style="fill: none; stroke: #ffffff; stroke-width: 3; stroke-linecap: square"/>
   </g>
   <g id="line2d_23">
    <path d="M 416.835748 186.017352 
L 416.118935 185.380315 
L 415.402123 184.743278 
L 414.685311 184.106241 
L 413.968499 183.469204 
L 413.251687 182.832167 
L 412.534876 182.19513 
L 411.818064 181.558092 
L 411.101253 180.921054 
L 410.384442 180.284016 
L 409.667631 179.646978 
L 408.95082 179.00994 
L 408.234009 178.372902 
L 407.517198 177.735863 
L 406.800388 177.098825 
L 406.083577 176.461786 
L 405.366767 175.824747 
L 404.649957 175.187708 
L 403.933146 174.550669 
L 403.216337 173.913629 
L 402.499527 173.27659 
L 401.782717 172.63955 
L 401.065907 172.002511 
L 400.349098 171.365471 
L 399.632288 170.728431 
L 398.915479 170.091391 
L 398.19867 169.454351 
L 397.481861 168.81731 
L 396.765052 168.18027 
L 396.048243 167.543229 
L 395.331434 166.906189 
L 394.614625 166.269148 
L 393.897817 165.632107 
L 393.181008 164.995066 
L 392.4642 164.358025 
L 391.747392 163.720984 
L 391.030583 163.083943 
L 390.313775 162.446902 
L 389.596967 161.80986 
L 388.880159 161.172819 
L 388.163351 160.535777 
L 387.446543 159.898735 
L 386.729735 159.261694 
L 386.012928 158.624652 
L 385.29612 157.98761 
L 384.579312 157.350568 
L 383.862505 156.713526 
L 383.145697 156.076484 
L 382.42889 155.439442 
L 381.712083 154.802399 
L 380.995275 154.165357 
L 380.278468 153.528315 
L 379.561661 152.891272 
L 378.844854 152.25423 
L 378.128047 151.617187 
L 377.41124 150.980145 
L 376.694433 150.343102 
L 375.977626 149.706059 
L 375.260819 149.069016 
L 374.544012 148.431974 
L 373.827205 147.794931 
L 373.110399 147.157888 
L 372.393592 146.520845 
L 371.676785 145.883802 
L 370.959978 145.246759 
L 370.243172 144.609716 
L 369.526365 143.972673 
L 368.809559 143.33563 
L 368.092752 142.698587 
L 367.375945 142.061543 
L 366.659139 141.4245 
L 365.942332 140.787457 
L 365.225526 140.150414 
L 364.508719 139.513371 
L 363.791913 138.876327 
L 363.075107 138.239284 
L 362.3583 137.602241 
L 361.641494 136.965198 
L 360.924687 136.328154 
L 360.207881 135.691111 
L 359.491074 135.054068 
L 358.774268 134.417024 
L 358.057461 133.779981 
L 357.340655 133.142938 
L 356.623849 132.505895 
L 355.907042 131.868851 
L 355.190236 131.231808 
L 354.473429 130.594765 
L 353.756623 129.957722 
L 353.039816 129.320678 
L 352.32301 128.683635 
L 351.606203 128.046592 
L 350.889397 127.409549 
L 350.17259 126.772506 
L 349.455783 126.135463 
L 348.738977 125.49842 
L 348.02217 124.861377 
L 347.305364 124.224334 
L 346.588557 123.587291 
L 345.87175 122.950248 
" clip-path="url(#peda5a3f50b)" style="fill: none; stroke: #ffffff; stroke-width: 3; stroke-linecap: square"/>
   </g>
   <g id="line2d_24">
    <path d="M 297.541944 255.535298 
L 297.043924 254.042323 
L 296.531527 252.552259 
L 296.016733 251.062531 
L 295.515201 249.56983 
L 295.024463 248.074705 
L 294.532287 246.579738 
L 294.022827 245.088217 
L 293.464324 243.606659 
L 292.821186 242.142181 
L 292.057544 240.701622 
L 291.136611 239.291469 
L 290.020043 237.917682 
L 288.667315 236.585404 
L 287.035132 235.298524 
L 285.087277 234.057238 
L 282.880668 232.843609 
L 280.596686 231.621632 
L 278.417495 230.362503 
L 276.368535 229.065707 
L 274.443854 227.735439 
L 272.640615 226.375139 
L 270.959113 224.987642 
L 269.402827 223.575316 
L 267.978509 222.140152 
L 266.696317 220.683839 
L 265.57001 219.207791 
L 264.617195 217.713134 
L 263.859669 216.200626 
L 263.323842 214.670497 
L 263.029562 213.122969 
L 262.95339 211.560419 
L 263.066191 209.984764 
L 263.345696 208.396871 
L 263.775807 206.796776 
L 264.346039 205.183795 
L 265.051089 203.556544 
L 265.890507 201.91289 
L 266.868385 200.249837 
L 267.974172 198.565353 
L 269.1581 196.86176 
L 270.369018 195.142971 
L 271.559611 193.414109 
L 272.685389 191.681594 
L 273.697344 189.954077 
L 274.537091 188.243208 
L 275.159083 186.559919 
L 275.55203 184.909832 
L 275.720971 183.295092 
L 275.729322 181.706782 
L 275.653045 180.132652 
L 275.554865 178.562088 
L 275.488864 176.985635 
L 275.473334 175.399875 
L 275.497223 173.806496 
L 275.550255 172.207084 
L 275.623721 170.603006 
L 275.710237 168.995449 
L 275.803544 167.385459 
L 275.898327 165.773967 
L 275.990048 164.16181 
L 276.07481 162.549757 
L 276.149223 160.93852 
L 276.210296 159.328775 
L 276.255329 157.721173 
L 276.281823 156.116357 
L 276.287394 154.514974 
L 276.269694 152.917689 
L 276.226336 151.325198 
L 276.154831 149.738239 
L 276.052511 148.157606 
L 275.916475 146.584158 
L 275.74352 145.018825 
L 275.530075 143.462623 
L 275.272141 141.91665 
L 274.965221 140.38209 
L 274.604249 138.860206 
L 274.186728 137.351577 
L 273.722196 135.853869 
L 273.217402 134.36535 
L 272.675573 132.885069 
L 272.100064 131.412012 
L 271.506254 129.94245 
L 270.919067 128.470694 
L 270.362202 126.991595 
L 269.858202 125.500494 
L 269.426839 123.993448 
L 269.067544 122.470844 
L 268.769388 120.93511 
L 268.522993 119.388202 
L 268.320461 117.831667 
L 268.155186 116.266721 
L 268.020372 114.694604 
L 267.895447 113.119672 
L 267.748443 111.549111 
L 267.546763 109.990602 
L 267.289689 108.444647 
L 267.016837 106.902236 
L 266.757404 105.356567 
L 266.498345 103.810657 
" clip-path="url(#peda5a3f50b)" style="fill: none; stroke: #ffffff; stroke-width: 3; stroke-linecap: square"/>
   </g>
   <g id="line2d_25">
    <path d="M 164.752742 242.949576 
L 165.96231 241.86478 
L 167.604056 240.956579 
L 169.496158 240.143225 
L 171.316773 239.291063 
L 172.807193 238.300255 
L 173.761094 237.095846 
L 173.961339 235.596772 
L 173.179593 233.707466 
L 171.411968 231.40289 
L 168.960282 228.771137 
L 166.187853 225.936715 
L 163.436456 223.038727 
L 160.998161 220.220373 
L 159.10013 217.615239 
L 157.754756 215.256749 
L 156.825514 213.093949 
L 156.20064 211.079443 
L 155.792571 209.1729 
L 155.533448 207.341114 
L 155.371701 205.557659 
L 155.269495 203.802431 
L 155.200862 202.061205 
L 155.146136 200.322804 
L 155.070821 198.566613 
L 154.942554 196.772324 
L 154.762356 194.939124 
L 154.558674 193.08324 
L 154.366781 191.226129 
L 154.229004 189.395013 
L 154.19594 187.623944 
L 154.32815 185.954983 
L 154.698582 184.439478 
L 155.396127 183.139374 
L 156.53047 182.128155 
L 158.159872 181.439501 
L 160.199397 181.006866 
L 162.570173 180.765799 
L 165.216967 180.667278 
L 168.104085 180.675299 
L 171.217367 180.767228 
L 174.580397 180.940742 
L 178.219747 181.191451 
L 181.899375 181.383561 
L 185.307446 181.370777 
L 188.279879 181.100253 
L 190.65393 180.528636 
L 192.31181 179.633415 
L 193.351348 178.474331 
L 193.909625 177.115423 
L 194.104942 175.605947 
L 194.03985 173.985741 
L 193.804388 172.289053 
L 193.47922 170.547306 
L 193.138597 168.79113 
L 192.853189 167.05191 
L 192.692885 165.362976 
L 192.729242 163.760277 
L 193.006581 162.267849 
L 193.484242 160.868919 
L 194.111901 159.540634 
L 194.850012 158.264387 
L 195.667749 157.025353 
L 196.541394 155.811998 
L 197.453076 154.615592 
L 198.389783 153.42978 
L 199.342583 152.250203 
L 200.306022 151.074182 
L 201.277664 149.900462 
L 202.257757 148.729009 
L 203.248991 147.56085 
L 204.256365 146.397961 
L 205.287128 145.243174 
L 206.350811 144.100118 
L 207.459332 142.973159 
L 208.651045 141.877172 
L 209.873578 140.789103 
L 210.892008 139.614777 
L 211.665192 138.341128 
L 212.26183 136.997261 
L 212.741003 135.606928 
L 213.137496 134.183711 
L 213.472571 132.735675 
L 213.76409 131.269529 
L 214.027519 129.791115 
L 214.318503 128.322938 
L 214.695197 126.889272 
L 215.146278 125.486019 
L 215.661967 124.109444 
L 216.235834 122.756999 
L 216.864432 121.42723 
L 217.547035 120.119683 
L 218.285055 118.834641 
L 219.075014 117.570238 
L 219.891684 116.315753 
L 220.707969 115.060036 
L 221.507985 113.796777 
L 222.282411 112.52248 
L 223.022111 111.233844 
L 223.717649 109.927547 
" clip-path="url(#peda5a3f50b)" style="fill: none; stroke: #ffffff; stroke-width: 3; stroke-linecap: square"/>
   </g>
   <g id="line2d_26">
    <path d="M 72.676123 170.361824 
L 73.387934 169.010853 
L 74.071172 167.6172 
L 74.727557 166.182306 
L 75.359577 164.70865 
L 75.969549 163.198489 
L 76.559641 161.653881 
L 77.131886 160.076717 
L 77.688927 158.469794 
L 78.235232 156.838653 
L 78.775364 155.189176 
L 79.313652 153.527142 
L 79.854222 151.858266 
L 80.401011 150.188239 
L 80.957796 148.522769 
L 81.528214 146.867615 
L 82.115972 145.228919 
L 82.725441 143.614181 
L 83.361062 142.03135 
L 84.02717 140.488542 
L 84.728034 138.994082 
L 85.467907 137.55655 
L 86.251073 136.184825 
L 87.08182 134.88798 
L 87.963064 133.672846 
L 88.896757 132.544545 
L 89.883668 131.506004 
L 90.92045 130.552711 
L 92.003618 129.679545 
L 93.130383 128.882278 
L 94.298605 128.157535 
L 95.506742 127.502759 
L 96.753826 126.916172 
L 98.039438 126.396746 
L 99.363597 125.944014 
L 100.72081 125.547741 
L 102.097848 125.184352 
L 103.48465 124.836067 
L 104.872087 124.487033 
L 106.251303 124.122189 
L 107.613663 123.727159 
L 108.954406 123.294332 
L 110.279454 122.834074 
L 111.596574 122.359633 
L 112.913487 121.883979 
L 114.237348 121.418941 
L 115.569492 120.966563 
L 116.907944 120.523414 
L 118.250905 120.086393 
L 119.596774 119.652774 
L 120.944134 119.220174 
L 122.291733 118.786524 
L 123.638479 118.350041 
L 124.983418 117.909205 
L 126.32573 117.462738 
L 127.664736 117.009604 
L 129.003375 116.55447 
L 130.352468 116.114208 
L 131.723881 115.706925 
L 133.129693 115.35055 
L 134.585677 115.067972 
L 136.10152 114.871768 
L 137.666442 114.742942 
L 139.267627 114.659931 
L 140.892644 114.602539 
L 142.529293 114.551824 
L 144.16549 114.489997 
L 145.7892 114.400312 
L 147.388395 114.266966 
L 148.951047 114.074982 
L 150.465137 113.810086 
L 151.918973 113.458938 
L 153.304331 113.013031 
L 154.620086 112.47303 
L 155.871121 111.846968 
L 157.062446 111.142474 
L 158.198794 110.366353 
L 159.284613 109.524662 
L 160.324059 108.622787 
L 161.321758 107.666488 
L 162.284083 106.663638 
L 163.217339 105.621953 
L 164.127402 104.548593 
L 165.019744 103.450236 
L 165.89945 102.333146 
L 166.771242 101.203226 
L 167.639503 100.066067 
L 168.508303 98.926997 
L 169.381421 97.791111 
L 170.262303 96.663208 
L 171.153136 95.546481 
L 172.055226 94.442975 
L 172.969803 93.354696 
L 173.898053 92.283641 
L 174.841127 91.231809 
L 175.800149 90.201211 
L 176.776228 89.19387 
L 177.770469 88.211833 
L 178.784422 87.257833 
L 179.822233 86.3385 
" clip-path="url(#peda5a3f50b)" style="fill: none; stroke: #ffffff; stroke-width: 3; stroke-linecap: square"/>
   </g>
   <g id="line2d_27">
    <path d="M 33.395513 80.770827 
L 34.5929 79.296468 
L 35.772626 77.686257 
L 36.932497 75.911584 
L 38.077905 73.982171 
L 39.217897 71.930271 
L 40.360523 69.786854 
L 41.512699 67.581461 
L 42.680175 65.342483 
L 43.86753 63.097407 
L 45.078185 60.873046 
L 46.314447 58.695738 
L 47.577559 56.591561 
L 48.86778 54.586538 
L 50.184486 52.706864 
L 51.526292 50.979164 
L 52.891208 49.430786 
L 54.276834 48.090147 
L 55.680274 46.979552 
L 57.097297 46.08139 
L 58.524249 45.367297 
L 59.958509 44.812782 
L 61.398213 44.396842 
L 62.842058 44.101615 
L 64.289149 43.91208 
L 65.738897 43.815796 
L 67.190938 43.802678 
L 68.645087 43.864815 
L 70.101301 43.996309 
L 71.559659 44.193148 
L 73.02036 44.453104 
L 74.483722 44.775649 
L 75.950198 45.161899 
L 77.420386 45.6142 
L 78.894739 46.128776 
L 80.373535 46.697215 
L 81.857178 47.314502 
L 83.346254 47.979148 
L 84.841491 48.691381 
L 86.343725 49.451992 
L 87.853303 50.253578 
L 89.370101 51.08386 
L 90.893862 51.931834 
L 92.424206 52.787735 
L 93.960629 53.642882 
L 95.502518 54.489551 
L 97.049153 55.320857 
L 98.599726 56.130645 
L 100.153347 56.913392 
L 101.709054 57.66412 
L 103.265824 58.378306 
L 104.82258 59.051806 
L 106.378198 59.680782 
L 107.931483 60.261444 
L 109.481036 60.789119 
L 111.025449 61.259539 
L 112.563283 61.668585 
L 114.093298 62.013494 
L 115.615146 62.296605 
L 117.128734 62.521167 
L 118.634002 62.690062 
L 120.130913 62.805819 
L 121.619442 62.87062 
L 123.099569 62.886319 
L 124.571272 62.854445 
L 126.034524 62.776216 
L 127.489289 62.652544 
L 128.935522 62.48404 
L 130.373449 62.272473 
L 131.80496 62.027891 
L 133.231402 61.757334 
L 134.653324 61.463637 
L 136.071229 61.14933 
L 137.485589 60.816735 
L 138.896843 60.467977 
L 140.30542 60.105095 
L 141.711815 59.730473 
L 143.116508 59.346438 
L 144.519952 58.955196 
L 145.922576 58.558854 
L 147.324785 58.159443 
L 148.726965 57.75894 
L 150.129485 57.359282 
L 151.532703 56.962391 
L 152.936961 56.570184 
L 154.342599 56.184593 
L 155.749947 55.807581 
L 157.159335 55.441151 
L 158.571097 55.087366 
L 159.98557 54.748359 
L 161.403103 54.426347 
L 162.82406 54.123641 
L 164.248828 53.842658 
L 165.677825 53.585935 
L 167.111507 53.356134 
L 168.550256 53.155317 
L 169.99332 52.978911 
L 171.43942 52.819271 
L 172.887387 52.669476 
L 174.336145 52.523275 
" clip-path="url(#peda5a3f50b)" style="fill: none; stroke: #ffffff; stroke-width: 3; stroke-linecap: square"/>
   </g>
   <g id="line2d_28">
    <path d="M 468.006054 84.712711 
L 467.050538 84.260887 
L 466.154686 83.522251 
L 465.287027 82.639734 
L 464.428044 81.703151 
L 463.56654 80.766045 
L 462.696844 79.857404 
L 461.816819 78.989814 
L 460.926506 78.165077 
L 460.02723 77.378055 
L 459.121027 76.619292 
L 458.210268 75.876791 
L 457.297418 75.137257 
L 456.384849 74.387053 
L 455.474689 73.613046 
L 454.568657 72.803558 
L 453.667856 71.949597 
L 452.772523 71.046605 
L 451.88169 70.097008 
L 450.992759 69.113928 
L 450.100949 68.126548 
L 449.198561 67.187796 
L 448.273881 66.385234 
L 447.309296 65.856396 
L 446.2818 65.779649 
L 445.200383 66.088023 
L 444.08931 66.59506 
L 442.96457 67.179094 
L 441.83667 67.764997 
L 440.712362 68.309041 
L 439.595725 68.788344 
L 438.488948 69.193326 
L 437.392994 69.522171 
L 436.307935 69.778012 
L 435.233261 69.966783 
L 434.168124 70.095709 
L 433.111511 70.172362 
L 432.062361 70.204088 
L 431.019637 70.197689 
L 429.982376 70.159266 
L 428.949709 70.094173 
L 427.920871 70.007023 
L 426.895199 69.901742 
L 425.87213 69.781637 
L 424.851189 69.649463 
L 423.831977 69.507505 
L 422.814167 69.357643 
L 421.797487 69.201418 
L 420.781716 69.040083 
L 419.766674 68.87466 
L 418.752215 68.705972 
L 417.738219 68.534685 
L 416.724591 68.361337 
L 415.711255 68.18636 
L 414.698148 68.0101 
L 413.685221 67.832838 
L 412.672432 67.654801 
L 411.659749 67.476173 
L 410.647144 67.297105 
L 409.634595 67.117726 
L 408.622083 66.938144 
L 407.609589 66.758457 
L 406.597098 66.578754 
L 405.584595 66.399122 
L 404.572062 66.219653 
L 403.559483 66.040441 
L 402.546839 65.861594 
L 401.534107 65.683235 
L 400.521262 65.50551 
L 399.508272 65.328592 
L 398.495099 65.152688 
L 397.4817 64.978049 
L 396.468019 64.804979 
L 395.45399 64.633844 
L 394.439534 64.465086 
L 393.424554 64.299237 
L 392.408935 64.136931 
L 391.392539 63.978922 
L 390.375205 63.826101 
L 389.35674 63.679508 
L 388.336922 63.540346 
L 387.315494 63.409986 
L 386.292168 63.289962 
L 385.266622 63.18195 
L 384.23851 63.087719 
L 383.207476 63.00904 
L 382.173179 62.94754 
L 381.135335 62.904461 
L 380.093782 62.8803 
L 379.04859 62.874267 
L 378.000218 62.883495 
L 376.949753 62.901894 
L 375.899261 62.918519 
L 374.852281 62.915264 
L 373.814514 62.863613 
L 372.794714 62.720094 
L 371.805456 62.421383 
L 370.847663 61.960645 
L 369.902466 61.430922 
L 368.953731 60.914743 
" clip-path="url(#peda5a3f50b)" style="fill: none; stroke: #0000ad; stroke-width: 1.5; stroke-linecap: square"/>
   </g>
   <g id="line2d_29">
    <path d="M 416.835748 186.017352 
L 416.118935 185.380315 
L 415.402123 184.743278 
L 414.685311 184.106241 
L 413.968499 183.469204 
L 413.251687 182.832167 
L 412.534876 182.19513 
L 411.818064 181.558092 
L 411.101253 180.921054 
L 410.384442 180.284016 
L 409.667631 179.646978 
L 408.95082 179.00994 
L 408.234009 178.372902 
L 407.517198 177.735863 
L 406.800388 177.098825 
L 406.083577 176.461786 
L 405.366767 175.824747 
L 404.649957 175.187708 
L 403.933146 174.550669 
L 403.216337 173.913629 
L 402.499527 173.27659 
L 401.782717 172.63955 
L 401.065907 172.002511 
L 400.349098 171.365471 
L 399.632288 170.728431 
L 398.915479 170.091391 
L 398.19867 169.454351 
L 397.481861 168.81731 
L 396.765052 168.18027 
L 396.048243 167.543229 
L 395.331434 166.906189 
L 394.614625 166.269148 
L 393.897817 165.632107 
L 393.181008 164.995066 
L 392.4642 164.358025 
L 391.747392 163.720984 
L 391.030583 163.083943 
L 390.313775 162.446902 
L 389.596967 161.80986 
L 388.880159 161.172819 
L 388.163351 160.535777 
L 387.446543 159.898735 
L 386.729735 159.261694 
L 386.012928 158.624652 
L 385.29612 157.98761 
L 384.579312 157.350568 
L 383.862505 156.713526 
L 383.145697 156.076484 
L 382.42889 155.439442 
L 381.712083 154.802399 
L 380.995275 154.165357 
L 380.278468 153.528315 
L 379.561661 152.891272 
L 378.844854 152.25423 
L 378.128047 151.617187 
L 377.41124 150.980145 
L 376.694433 150.343102 
L 375.977626 149.706059 
L 375.260819 149.069016 
L 374.544012 148.431974 
L 373.827205 147.794931 
L 373.110399 147.157888 
L 372.393592 146.520845 
L 371.676785 145.883802 
L 370.959978 145.246759 
L 370.243172 144.609716 
L 369.526365 143.972673 
L 368.809559 143.33563 
L 368.092752 142.698587 
L 367.375945 142.061543 
L 366.659139 141.4245 
L 365.942332 140.787457 
L 365.225526 140.150414 
L 364.508719 139.513371 
L 363.791913 138.876327 
L 363.075107 138.239284 
L 362.3583 137.602241 
L 361.641494 136.965198 
L 360.924687 136.328154 
L 360.207881 135.691111 
L 359.491074 135.054068 
L 358.774268 134.417024 
L 358.057461 133.779981 
L 357.340655 133.142938 
L 356.623849 132.505895 
L 355.907042 131.868851 
L 355.190236 131.231808 
L 354.473429 130.594765 
L 353.756623 129.957722 
L 353.039816 129.320678 
L 352.32301 128.683635 
L 351.606203 128.046592 
L 350.889397 127.409549 
L 350.17259 126.772506 
L 349.455783 126.135463 
L 348.738977 125.49842 
L 348.02217 124.861377 
L 347.305364 124.224334 
L 346.588557 123.587291 
L 345.87175 122.950248 
" clip-path="url(#peda5a3f50b)" style="fill: none; stroke: #00aa8b; stroke-width: 1.5; stroke-linecap: square"/>
   </g>
   <g id="line2d_30">
    <path d="M 297.541944 255.535298 
L 297.043924 254.042323 
L 296.531527 252.552259 
L 296.016733 251.062531 
L 295.515201 249.56983 
L 295.024463 248.074705 
L 294.532287 246.579738 
L 294.022827 245.088217 
L 293.464324 243.606659 
L 292.821186 242.142181 
L 292.057544 240.701622 
L 291.136611 239.291469 
L 290.020043 237.917682 
L 288.667315 236.585404 
L 287.035132 235.298524 
L 285.087277 234.057238 
L 282.880668 232.843609 
L 280.596686 231.621632 
L 278.417495 230.362503 
L 276.368535 229.065707 
L 274.443854 227.735439 
L 272.640615 226.375139 
L 270.959113 224.987642 
L 269.402827 223.575316 
L 267.978509 222.140152 
L 266.696317 220.683839 
L 265.57001 219.207791 
L 264.617195 217.713134 
L 263.859669 216.200626 
L 263.323842 214.670497 
L 263.029562 213.122969 
L 262.95339 211.560419 
L 263.066191 209.984764 
L 263.345696 208.396871 
L 263.775807 206.796776 
L 264.346039 205.183795 
L 265.051089 203.556544 
L 265.890507 201.91289 
L 266.868385 200.249837 
L 267.974172 198.565353 
L 269.1581 196.86176 
L 270.369018 195.142971 
L 271.559611 193.414109 
L 272.685389 191.681594 
L 273.697344 189.954077 
L 274.537091 188.243208 
L 275.159083 186.559919 
L 275.55203 184.909832 
L 275.720971 183.295092 
L 275.729322 181.706782 
L 275.653045 180.132652 
L 275.554865 178.562088 
L 275.488864 176.985635 
L 275.473334 175.399875 
L 275.497223 173.806496 
L 275.550255 172.207084 
L 275.623721 170.603006 
L 275.710237 168.995449 
L 275.803544 167.385459 
L 275.898327 165.773967 
L 275.990048 164.16181 
L 276.07481 162.549757 
L 276.149223 160.93852 
L 276.210296 159.328775 
L 276.255329 157.721173 
L 276.281823 156.116357 
L 276.287394 154.514974 
L 276.269694 152.917689 
L 276.226336 151.325198 
L 276.154831 149.738239 
L 276.052511 148.157606 
L 275.916475 146.584158 
L 275.74352 145.018825 
L 275.530075 143.462623 
L 275.272141 141.91665 
L 274.965221 140.38209 
L 274.604249 138.860206 
L 274.186728 137.351577 
L 273.722196 135.853869 
L 273.217402 134.36535 
L 272.675573 132.885069 
L 272.100064 131.412012 
L 271.506254 129.94245 
L 270.919067 128.470694 
L 270.362202 126.991595 
L 269.858202 125.500494 
L 269.426839 123.993448 
L 269.067544 122.470844 
L 268.769388 120.93511 
L 268.522993 119.388202 
L 268.320461 117.831667 
L 268.155186 116.266721 
L 268.020372 114.694604 
L 267.895447 113.119672 
L 267.748443 111.549111 
L 267.546763 109.990602 
L 267.289689 108.444647 
L 267.016837 106.902236 
L 266.757404 105.356567 
L 266.498345 103.810657 
" clip-path="url(#peda5a3f50b)" style="fill: none; stroke: #1dff00; stroke-width: 1.5; stroke-linecap: square"/>
   </g>
   <g id="line2d_31">
    <path d="M 164.752742 242.949576 
L 165.96231 241.86478 
L 167.604056 240.956579 
L 169.496158 240.143225 
L 171.316773 239.291063 
L 172.807193 238.300255 
L 173.761094 237.095846 
L 173.961339 235.596772 
L 173.179593 233.707466 
L 171.411968 231.40289 
L 168.960282 228.771137 
L 166.187853 225.936715 
L 163.436456 223.038727 
L 160.998161 220.220373 
L 159.10013 217.615239 
L 157.754756 215.256749 
L 156.825514 213.093949 
L 156.20064 211.079443 
L 155.792571 209.1729 
L 155.533448 207.341114 
L 155.371701 205.557659 
L 155.269495 203.802431 
L 155.200862 202.061205 
L 155.146136 200.322804 
L 155.070821 198.566613 
L 154.942554 196.772324 
L 154.762356 194.939124 
L 154.558674 193.08324 
L 154.366781 191.226129 
L 154.229004 189.395013 
L 154.19594 187.623944 
L 154.32815 185.954983 
L 154.698582 184.439478 
L 155.396127 183.139374 
L 156.53047 182.128155 
L 158.159872 181.439501 
L 160.199397 181.006866 
L 162.570173 180.765799 
L 165.216967 180.667278 
L 168.104085 180.675299 
L 171.217367 180.767228 
L 174.580397 180.940742 
L 178.219747 181.191451 
L 181.899375 181.383561 
L 185.307446 181.370777 
L 188.279879 181.100253 
L 190.65393 180.528636 
L 192.31181 179.633415 
L 193.351348 178.474331 
L 193.909625 177.115423 
L 194.104942 175.605947 
L 194.03985 173.985741 
L 193.804388 172.289053 
L 193.47922 170.547306 
L 193.138597 168.79113 
L 192.853189 167.05191 
L 192.692885 165.362976 
L 192.729242 163.760277 
L 193.006581 162.267849 
L 193.484242 160.868919 
L 194.111901 159.540634 
L 194.850012 158.264387 
L 195.667749 157.025353 
L 196.541394 155.811998 
L 197.453076 154.615592 
L 198.389783 153.42978 
L 199.342583 152.250203 
L 200.306022 151.074182 
L 201.277664 149.900462 
L 202.257757 148.729009 
L 203.248991 147.56085 
L 204.256365 146.397961 
L 205.287128 145.243174 
L 206.350811 144.100118 
L 207.459332 142.973159 
L 208.651045 141.877172 
L 209.873578 140.789103 
L 210.892008 139.614777 
L 211.665192 138.341128 
L 212.26183 136.997261 
L 212.741003 135.606928 
L 213.137496 134.183711 
L 213.472571 132.735675 
L 213.76409 131.269529 
L 214.027519 129.791115 
L 214.318503 128.322938 
L 214.695197 126.889272 
L 215.146278 125.486019 
L 215.661967 124.109444 
L 216.235834 122.756999 
L 216.864432 121.42723 
L 217.547035 120.119683 
L 218.285055 118.834641 
L 219.075014 117.570238 
L 219.891684 116.315753 
L 220.707969 115.060036 
L 221.507985 113.796777 
L 222.282411 112.52248 
L 223.022111 111.233844 
L 223.717649 109.927547 
" clip-path="url(#peda5a3f50b)" style="fill: none; stroke: #ffb900; stroke-width: 1.5; stroke-linecap: square"/>
   </g>
   <g id="line2d_32">
    <path d="M 72.676123 170.361824 
L 73.387934 169.010853 
L 74.071172 167.6172 
L 74.727557 166.182306 
L 75.359577 164.70865 
L 75.969549 163.198489 
L 76.559641 161.653881 
L 77.131886 160.076717 
L 77.688927 158.469794 
L 78.235232 156.838653 
L 78.775364 155.189176 
L 79.313652 153.527142 
L 79.854222 151.858266 
L 80.401011 150.188239 
L 80.957796 148.522769 
L 81.528214 146.867615 
L 82.115972 145.228919 
L 82.725441 143.614181 
L 83.361062 142.03135 
L 84.02717 140.488542 
L 84.728034 138.994082 
L 85.467907 137.55655 
L 86.251073 136.184825 
L 87.08182 134.88798 
L 87.963064 133.672846 
L 88.896757 132.544545 
L 89.883668 131.506004 
L 90.92045 130.552711 
L 92.003618 129.679545 
L 93.130383 128.882278 
L 94.298605 128.157535 
L 95.506742 127.502759 
L 96.753826 126.916172 
L 98.039438 126.396746 
L 99.363597 125.944014 
L 100.72081 125.547741 
L 102.097848 125.184352 
L 103.48465 124.836067 
L 104.872087 124.487033 
L 106.251303 124.122189 
L 107.613663 123.727159 
L 108.954406 123.294332 
L 110.279454 122.834074 
L 111.596574 122.359633 
L 112.913487 121.883979 
L 114.237348 121.418941 
L 115.569492 120.966563 
L 116.907944 120.523414 
L 118.250905 120.086393 
L 119.596774 119.652774 
L 120.944134 119.220174 
L 122.291733 118.786524 
L 123.638479 118.350041 
L 124.983418 117.909205 
L 126.32573 117.462738 
L 127.664736 117.009604 
L 129.003375 116.55447 
L 130.352468 116.114208 
L 131.723881 115.706925 
L 133.129693 115.35055 
L 134.585677 115.067972 
L 136.10152 114.871768 
L 137.666442 114.742942 
L 139.267627 114.659931 
L 140.892644 114.602539 
L 142.529293 114.551824 
L 144.16549 114.489997 
L 145.7892 114.400312 
L 147.388395 114.266966 
L 148.951047 114.074982 
L 150.465137 113.810086 
L 151.918973 113.458938 
L 153.304331 113.013031 
L 154.620086 112.47303 
L 155.871121 111.846968 
L 157.062446 111.142474 
L 158.198794 110.366353 
L 159.284613 109.524662 
L 160.324059 108.622787 
L 161.321758 107.666488 
L 162.284083 106.663638 
L 163.217339 105.621953 
L 164.127402 104.548593 
L 165.019744 103.450236 
L 165.89945 102.333146 
L 166.771242 101.203226 
L 167.639503 100.066067 
L 168.508303 98.926997 
L 169.381421 97.791111 
L 170.262303 96.663208 
L 171.153136 95.546481 
L 172.055226 94.442975 
L 172.969803 93.354696 
L 173.898053 92.283641 
L 174.841127 91.231809 
L 175.800149 90.201211 
L 176.776228 89.19387 
L 177.770469 88.211833 
L 178.784422 87.257833 
L 179.822233 86.3385 
" clip-path="url(#peda5a3f50b)" style="fill: none; stroke: #e60000; stroke-width: 1.5; stroke-linecap: square"/>
   </g>
   <g id="line2d_33">
    <path d="M 33.395513 80.770827 
L 34.5929 79.296468 
L 35.772626 77.686257 
L 36.932497 75.911584 
L 38.077905 73.982171 
L 39.217897 71.930271 
L 40.360523 69.786854 
L 41.512699 67.581461 
L 42.680175 65.342483 
L 43.86753 63.097407 
L 45.078185 60.873046 
L 46.314447 58.695738 
L 47.577559 56.591561 
L 48.86778 54.586538 
L 50.184486 52.706864 
L 51.526292 50.979164 
L 52.891208 49.430786 
L 54.276834 48.090147 
L 55.680274 46.979552 
L 57.097297 46.08139 
L 58.524249 45.367297 
L 59.958509 44.812782 
L 61.398213 44.396842 
L 62.842058 44.101615 
L 64.289149 43.91208 
L 65.738897 43.815796 
L 67.190938 43.802678 
L 68.645087 43.864815 
L 70.101301 43.996309 
L 71.559659 44.193148 
L 73.02036 44.453104 
L 74.483722 44.775649 
L 75.950198 45.161899 
L 77.420386 45.6142 
L 78.894739 46.128776 
L 80.373535 46.697215 
L 81.857178 47.314502 
L 83.346254 47.979148 
L 84.841491 48.691381 
L 86.343725 49.451992 
L 87.853303 50.253578 
L 89.370101 51.08386 
L 90.893862 51.931834 
L 92.424206 52.787735 
L 93.960629 53.642882 
L 95.502518 54.489551 
L 97.049153 55.320857 
L 98.599726 56.130645 
L 100.153347 56.913392 
L 101.709054 57.66412 
L 103.265824 58.378306 
L 104.82258 59.051806 
L 106.378198 59.680782 
L 107.931483 60.261444 
L 109.481036 60.789119 
L 111.025449 61.259539 
L 112.563283 61.668585 
L 114.093298 62.013494 
L 115.615146 62.296605 
L 117.128734 62.521167 
L 118.634002 62.690062 
L 120.130913 62.805819 
L 121.619442 62.87062 
L 123.099569 62.886319 
L 124.571272 62.854445 
L 126.034524 62.776216 
L 127.489289 62.652544 
L 128.935522 62.48404 
L 130.373449 62.272473 
L 131.80496 62.027891 
L 133.231402 61.757334 
L 134.653324 61.463637 
L 136.071229 61.14933 
L 137.485589 60.816735 
L 138.896843 60.467977 
L 140.30542 60.105095 
L 141.711815 59.730473 
L 143.116508 59.346438 
L 144.519952 58.955196 
L 145.922576 58.558854 
L 147.324785 58.159443 
L 148.726965 57.75894 
L 150.129485 57.359282 
L 151.532703 56.962391 
L 152.936961 56.570184 
L 154.342599 56.184593 
L 155.749947 55.807581 
L 157.159335 55.441151 
L 158.571097 55.087366 
L 159.98557 54.748359 
L 161.403103 54.426347 
L 162.82406 54.123641 
L 164.248828 53.842658 
L 165.677825 53.585935 
L 167.111507 53.356134 
L 168.550256 53.155317 
L 169.99332 52.978911 
L 171.43942 52.819271 
L 172.887387 52.669476 
L 174.336145 52.523275 
" clip-path="url(#peda5a3f50b)" style="fill: none; stroke: #cc6c6c; stroke-width: 1.5; stroke-linecap: square"/>
   </g>
   <g id="patch_2">
    <path d="M 252.014228 105.238228 
Q 251.557114 105.241369 251.994406 105.238364 
" style="fill: none; stroke: #ffffff; stroke-width: 0.8; stroke-linecap: round"/>
    <path d="M 256.008056 107.210828 
L 251.994406 105.238364 
L 255.980567 103.210922 
z
" style="fill: #ffffff; stroke: #ffffff; stroke-width: 0.8; stroke-linecap: round"/>
   </g>
   <g id="text_1">
    <!-- $\mathbf{L}\mathrm{inking~}\mathbf{S}\mathrm{eries~}\mathbf{t}\mathrm{o~}\mathbf{e}\mathrm{nvision ~}\mathbf{i}\mathrm{nformation~}\mathbf{n}\mathrm{eatly~}$ -->
    <g style="fill: #ffffff" transform="translate(31.08 21.64) scale(0.19 -0.19)">
     <defs>
      <path id="DejaVuSans-Bold-4c" d="M 588 4666 
L 1791 4666 
L 1791 909 
L 3903 909 
L 3903 0 
L 588 0 
L 588 4666 
z
" transform="scale(0.015625)"/>
      <path id="DejaVuSans-69" d="M 603 3500 
L 1178 3500 
L 1178 0 
L 603 0 
L 603 3500 
z
M 603 4863 
L 1178 4863 
L 1178 4134 
L 603 4134 
L 603 4863 
z
" transform="scale(0.015625)"/>
      <path id="DejaVuSans-6e" d="M 3513 2113 
L 3513 0 
L 2938 0 
L 2938 2094 
Q 2938 2591 2744 2837 
Q 2550 3084 2163 3084 
Q 1697 3084 1428 2787 
Q 1159 2491 1159 1978 
L 1159 0 
L 581 0 
L 581 3500 
L 1159 3500 
L 1159 2956 
Q 1366 3272 1645 3428 
Q 1925 3584 2291 3584 
Q 2894 3584 3203 3211 
Q 3513 2838 3513 2113 
z
" transform="scale(0.015625)"/>
      <path id="DejaVuSans-6b" d="M 581 4863 
L 1159 4863 
L 1159 1991 
L 2875 3500 
L 3609 3500 
L 1753 1863 
L 3688 0 
L 2938 0 
L 1159 1709 
L 1159 0 
L 581 0 
L 581 4863 
z
" transform="scale(0.015625)"/>
      <path id="DejaVuSans-67" d="M 2906 1791 
Q 2906 2416 2648 2759 
Q 2391 3103 1925 3103 
Q 1463 3103 1205 2759 
Q 947 2416 947 1791 
Q 947 1169 1205 825 
Q 1463 481 1925 481 
Q 2391 481 2648 825 
Q 2906 1169 2906 1791 
z
M 3481 434 
Q 3481 -459 3084 -895 
Q 2688 -1331 1869 -1331 
Q 1566 -1331 1297 -1286 
Q 1028 -1241 775 -1147 
L 775 -588 
Q 1028 -725 1275 -790 
Q 1522 -856 1778 -856 
Q 2344 -856 2625 -561 
Q 2906 -266 2906 331 
L 2906 616 
Q 2728 306 2450 153 
Q 2172 0 1784 0 
Q 1141 0 747 490 
Q 353 981 353 1791 
Q 353 2603 747 3093 
Q 1141 3584 1784 3584 
Q 2172 3584 2450 3431 
Q 2728 3278 2906 2969 
L 2906 3500 
L 3481 3500 
L 3481 434 
z
" transform="scale(0.015625)"/>
      <path id="DejaVuSans-Bold-53" d="M 3834 4519 
L 3834 3531 
Q 3450 3703 3084 3790 
Q 2719 3878 2394 3878 
Q 1963 3878 1756 3759 
Q 1550 3641 1550 3391 
Q 1550 3203 1689 3098 
Q 1828 2994 2194 2919 
L 2706 2816 
Q 3484 2659 3812 2340 
Q 4141 2022 4141 1434 
Q 4141 663 3683 286 
Q 3225 -91 2284 -91 
Q 1841 -91 1394 -6 
Q 947 78 500 244 
L 500 1259 
Q 947 1022 1364 901 
Q 1781 781 2169 781 
Q 2563 781 2772 912 
Q 2981 1044 2981 1288 
Q 2981 1506 2839 1625 
Q 2697 1744 2272 1838 
L 1806 1941 
Q 1106 2091 782 2419 
Q 459 2747 459 3303 
Q 459 4000 909 4375 
Q 1359 4750 2203 4750 
Q 2588 4750 2994 4692 
Q 3400 4634 3834 4519 
z
" transform="scale(0.015625)"/>
      <path id="DejaVuSans-65" d="M 3597 1894 
L 3597 1613 
L 953 1613 
Q 991 1019 1311 708 
Q 1631 397 2203 397 
Q 2534 397 2845 478 
Q 3156 559 3463 722 
L 3463 178 
Q 3153 47 2828 -22 
Q 2503 -91 2169 -91 
Q 1331 -91 842 396 
Q 353 884 353 1716 
Q 353 2575 817 3079 
Q 1281 3584 2069 3584 
Q 2775 3584 3186 3129 
Q 3597 2675 3597 1894 
z
M 3022 2063 
Q 3016 2534 2758 2815 
Q 2500 3097 2075 3097 
Q 1594 3097 1305 2825 
Q 1016 2553 972 2059 
L 3022 2063 
z
" transform="scale(0.015625)"/>
      <path id="DejaVuSans-72" d="M 2631 2963 
Q 2534 3019 2420 3045 
Q 2306 3072 2169 3072 
Q 1681 3072 1420 2755 
Q 1159 2438 1159 1844 
L 1159 0 
L 581 0 
L 581 3500 
L 1159 3500 
L 1159 2956 
Q 1341 3275 1631 3429 
Q 1922 3584 2338 3584 
Q 2397 3584 2469 3576 
Q 2541 3569 2628 3553 
L 2631 2963 
z
" transform="scale(0.015625)"/>
      <path id="DejaVuSans-73" d="M 2834 3397 
L 2834 2853 
Q 2591 2978 2328 3040 
Q 2066 3103 1784 3103 
Q 1356 3103 1142 2972 
Q 928 2841 928 2578 
Q 928 2378 1081 2264 
Q 1234 2150 1697 2047 
L 1894 2003 
Q 2506 1872 2764 1633 
Q 3022 1394 3022 966 
Q 3022 478 2636 193 
Q 2250 -91 1575 -91 
Q 1294 -91 989 -36 
Q 684 19 347 128 
L 347 722 
Q 666 556 975 473 
Q 1284 391 1588 391 
Q 1994 391 2212 530 
Q 2431 669 2431 922 
Q 2431 1156 2273 1281 
Q 2116 1406 1581 1522 
L 1381 1569 
Q 847 1681 609 1914 
Q 372 2147 372 2553 
Q 372 3047 722 3315 
Q 1072 3584 1716 3584 
Q 2034 3584 2315 3537 
Q 2597 3491 2834 3397 
z
" transform="scale(0.015625)"/>
      <path id="DejaVuSans-Bold-74" d="M 1759 4494 
L 1759 3500 
L 2913 3500 
L 2913 2700 
L 1759 2700 
L 1759 1216 
Q 1759 972 1856 886 
Q 1953 800 2241 800 
L 2816 800 
L 2816 0 
L 1856 0 
Q 1194 0 917 276 
Q 641 553 641 1216 
L 641 2700 
L 84 2700 
L 84 3500 
L 641 3500 
L 641 4494 
L 1759 4494 
z
" transform="scale(0.015625)"/>
      <path id="DejaVuSans-6f" d="M 1959 3097 
Q 1497 3097 1228 2736 
Q 959 2375 959 1747 
Q 959 1119 1226 758 
Q 1494 397 1959 397 
Q 2419 397 2687 759 
Q 2956 1122 2956 1747 
Q 2956 2369 2687 2733 
Q 2419 3097 1959 3097 
z
M 1959 3584 
Q 2709 3584 3137 3096 
Q 3566 2609 3566 1747 
Q 3566 888 3137 398 
Q 2709 -91 1959 -91 
Q 1206 -91 779 398 
Q 353 888 353 1747 
Q 353 2609 779 3096 
Q 1206 3584 1959 3584 
z
" transform="scale(0.015625)"/>
      <path id="DejaVuSans-Bold-65" d="M 4031 1759 
L 4031 1441 
L 1416 1441 
Q 1456 1047 1700 850 
Q 1944 653 2381 653 
Q 2734 653 3104 758 
Q 3475 863 3866 1075 
L 3866 213 
Q 3469 63 3072 -14 
Q 2675 -91 2278 -91 
Q 1328 -91 801 392 
Q 275 875 275 1747 
Q 275 2603 792 3093 
Q 1309 3584 2216 3584 
Q 3041 3584 3536 3087 
Q 4031 2591 4031 1759 
z
M 2881 2131 
Q 2881 2450 2695 2645 
Q 2509 2841 2209 2841 
Q 1884 2841 1681 2658 
Q 1478 2475 1428 2131 
L 2881 2131 
z
" transform="scale(0.015625)"/>
      <path id="DejaVuSans-76" d="M 191 3500 
L 800 3500 
L 1894 563 
L 2988 3500 
L 3597 3500 
L 2284 0 
L 1503 0 
L 191 3500 
z
" transform="scale(0.015625)"/>
      <path id="DejaVuSans-Bold-69" d="M 538 3500 
L 1656 3500 
L 1656 0 
L 538 0 
L 538 3500 
z
M 538 4863 
L 1656 4863 
L 1656 3950 
L 538 3950 
L 538 4863 
z
" transform="scale(0.015625)"/>
      <path id="DejaVuSans-66" d="M 2375 4863 
L 2375 4384 
L 1825 4384 
Q 1516 4384 1395 4259 
Q 1275 4134 1275 3809 
L 1275 3500 
L 2222 3500 
L 2222 3053 
L 1275 3053 
L 1275 0 
L 697 0 
L 697 3053 
L 147 3053 
L 147 3500 
L 697 3500 
L 697 3744 
Q 697 4328 969 4595 
Q 1241 4863 1831 4863 
L 2375 4863 
z
" transform="scale(0.015625)"/>
      <path id="DejaVuSans-6d" d="M 3328 2828 
Q 3544 3216 3844 3400 
Q 4144 3584 4550 3584 
Q 5097 3584 5394 3201 
Q 5691 2819 5691 2113 
L 5691 0 
L 5113 0 
L 5113 2094 
Q 5113 2597 4934 2840 
Q 4756 3084 4391 3084 
Q 3944 3084 3684 2787 
Q 3425 2491 3425 1978 
L 3425 0 
L 2847 0 
L 2847 2094 
Q 2847 2600 2669 2842 
Q 2491 3084 2119 3084 
Q 1678 3084 1418 2786 
Q 1159 2488 1159 1978 
L 1159 0 
L 581 0 
L 581 3500 
L 1159 3500 
L 1159 2956 
Q 1356 3278 1631 3431 
Q 1906 3584 2284 3584 
Q 2666 3584 2933 3390 
Q 3200 3197 3328 2828 
z
" transform="scale(0.015625)"/>
      <path id="DejaVuSans-61" d="M 2194 1759 
Q 1497 1759 1228 1600 
Q 959 1441 959 1056 
Q 959 750 1161 570 
Q 1363 391 1709 391 
Q 2188 391 2477 730 
Q 2766 1069 2766 1631 
L 2766 1759 
L 2194 1759 
z
M 3341 1997 
L 3341 0 
L 2766 0 
L 2766 531 
Q 2569 213 2275 61 
Q 1981 -91 1556 -91 
Q 1019 -91 701 211 
Q 384 513 384 1019 
Q 384 1609 779 1909 
Q 1175 2209 1959 2209 
L 2766 2209 
L 2766 2266 
Q 2766 2663 2505 2880 
Q 2244 3097 1772 3097 
Q 1472 3097 1187 3025 
Q 903 2953 641 2809 
L 641 3341 
Q 956 3463 1253 3523 
Q 1550 3584 1831 3584 
Q 2591 3584 2966 3190 
Q 3341 2797 3341 1997 
z
" transform="scale(0.015625)"/>
      <path id="DejaVuSans-74" d="M 1172 4494 
L 1172 3500 
L 2356 3500 
L 2356 3053 
L 1172 3053 
L 1172 1153 
Q 1172 725 1289 603 
Q 1406 481 1766 481 
L 2356 481 
L 2356 0 
L 1766 0 
Q 1100 0 847 248 
Q 594 497 594 1153 
L 594 3053 
L 172 3053 
L 172 3500 
L 594 3500 
L 594 4494 
L 1172 4494 
z
" transform="scale(0.015625)"/>
      <path id="DejaVuSans-Bold-6e" d="M 4056 2131 
L 4056 0 
L 2931 0 
L 2931 347 
L 2931 1631 
Q 2931 2084 2911 2256 
Q 2891 2428 2841 2509 
Q 2775 2619 2662 2680 
Q 2550 2741 2406 2741 
Q 2056 2741 1856 2470 
Q 1656 2200 1656 1722 
L 1656 0 
L 538 0 
L 538 3500 
L 1656 3500 
L 1656 2988 
Q 1909 3294 2193 3439 
Q 2478 3584 2822 3584 
Q 3428 3584 3742 3212 
Q 4056 2841 4056 2131 
z
" transform="scale(0.015625)"/>
      <path id="DejaVuSans-6c" d="M 603 4863 
L 1178 4863 
L 1178 0 
L 603 0 
L 603 4863 
z
" transform="scale(0.015625)"/>
      <path id="DejaVuSans-79" d="M 2059 -325 
Q 1816 -950 1584 -1140 
Q 1353 -1331 966 -1331 
L 506 -1331 
L 506 -850 
L 844 -850 
Q 1081 -850 1212 -737 
Q 1344 -625 1503 -206 
L 1606 56 
L 191 3500 
L 800 3500 
L 1894 763 
L 2988 3500 
L 3597 3500 
L 2059 -325 
z
" transform="scale(0.015625)"/>
     </defs>
     <use xlink:href="#DejaVuSans-Bold-4c" transform="translate(0 0.015625)"/>
     <use xlink:href="#DejaVuSans-69" transform="translate(63.720703 0.015625)"/>
     <use xlink:href="#DejaVuSans-6e" transform="translate(91.503906 0.015625)"/>
     <use xlink:href="#DejaVuSans-6b" transform="translate(154.882812 0.015625)"/>
     <use xlink:href="#DejaVuSans-69" transform="translate(212.792969 0.015625)"/>
     <use xlink:href="#DejaVuSans-6e" transform="translate(240.576172 0.015625)"/>
     <use xlink:href="#DejaVuSans-67" transform="translate(303.955078 0.015625)"/>
     <use xlink:href="#DejaVuSans-Bold-53" transform="translate(399.902019 0.015625)"/>
     <use xlink:href="#DejaVuSans-65" transform="translate(471.923503 0.015625)"/>
     <use xlink:href="#DejaVuSans-72" transform="translate(533.446941 0.015625)"/>
     <use xlink:href="#DejaVuSans-69" transform="translate(574.560222 0.015625)"/>
     <use xlink:href="#DejaVuSans-65" transform="translate(602.343425 0.015625)"/>
     <use xlink:href="#DejaVuSans-73" transform="translate(663.866863 0.015625)"/>
     <use xlink:href="#DejaVuSans-Bold-74" transform="translate(748.436851 0.015625)"/>
     <use xlink:href="#DejaVuSans-6f" transform="translate(796.239585 0.015625)"/>
     <use xlink:href="#DejaVuSans-Bold-65" transform="translate(889.891604 0.015625)"/>
     <use xlink:href="#DejaVuSans-6e" transform="translate(957.71387 0.015625)"/>
     <use xlink:href="#DejaVuSans-76" transform="translate(1021.092776 0.015625)"/>
     <use xlink:href="#DejaVuSans-69" transform="translate(1080.272463 0.015625)"/>
     <use xlink:href="#DejaVuSans-73" transform="translate(1108.055667 0.015625)"/>
     <use xlink:href="#DejaVuSans-69" transform="translate(1160.155276 0.015625)"/>
     <use xlink:href="#DejaVuSans-6f" transform="translate(1187.938479 0.015625)"/>
     <use xlink:href="#DejaVuSans-6e" transform="translate(1249.12012 0.015625)"/>
     <use xlink:href="#DejaVuSans-Bold-69" transform="translate(1344.969404 0.015625)"/>
     <use xlink:href="#DejaVuSans-6e" transform="translate(1379.246748 0.015625)"/>
     <use xlink:href="#DejaVuSans-66" transform="translate(1442.625654 0.015625)"/>
     <use xlink:href="#DejaVuSans-6f" transform="translate(1477.830732 0.015625)"/>
     <use xlink:href="#DejaVuSans-72" transform="translate(1539.012373 0.015625)"/>
     <use xlink:href="#DejaVuSans-6d" transform="translate(1580.125654 0.015625)"/>
     <use xlink:href="#DejaVuSans-61" transform="translate(1677.537764 0.015625)"/>
     <use xlink:href="#DejaVuSans-74" transform="translate(1738.817061 0.015625)"/>
     <use xlink:href="#DejaVuSans-69" transform="translate(1778.026045 0.015625)"/>
     <use xlink:href="#DejaVuSans-6f" transform="translate(1805.809248 0.015625)"/>
     <use xlink:href="#DejaVuSans-6e" transform="translate(1866.990889 0.015625)"/>
     <use xlink:href="#DejaVuSans-Bold-6e" transform="translate(1962.840173 0.015625)"/>
     <use xlink:href="#DejaVuSans-65" transform="translate(2034.03158 0.015625)"/>
     <use xlink:href="#DejaVuSans-61" transform="translate(2095.555017 0.015625)"/>
     <use xlink:href="#DejaVuSans-74" transform="translate(2156.834314 0.015625)"/>
     <use xlink:href="#DejaVuSans-6c" transform="translate(2196.043298 0.015625)"/>
     <use xlink:href="#DejaVuSans-79" transform="translate(2223.826501 0.015625)"/>
    </g>
   </g>
  </g>
 </g>
 <defs>
  <clipPath id="peda5a3f50b">
   <rect x="7.2" y="27.64" width="487.8" height="243.899234"/>
  </clipPath>
 </defs>
</svg>
